<mxfile host="Electron" modified="2023-11-28T03:28:05.866Z" agent="Mozilla/5.0 (Windows NT 10.0; Win64; x64) AppleWebKit/537.36 (KHTML, like Gecko) draw.io/22.0.3 Chrome/114.0.5735.289 Electron/25.8.4 Safari/537.36" etag="zWbqui3CjJuDVd05GjHJ" version="22.0.3" type="device">
  <diagram name="Page-1" id="L7VYTvUnGrwDUEZnL2d_">
    <mxGraphModel dx="4600" dy="-337" grid="1" gridSize="10" guides="1" tooltips="1" connect="1" arrows="1" fold="1" page="1" pageScale="1" pageWidth="850" pageHeight="1100" math="0" shadow="0">
      <root>
        <mxCell id="0" />
        <mxCell id="1" parent="0" />
        <mxCell id="7crgOBvIinUt4j5GadzT-1" value="&lt;div style=&quot;box-sizing: border-box; width: 100%; background: rgb(228, 228, 228); padding: 2px; font-size: 12px;&quot;&gt;api_keys&lt;/div&gt;&lt;table style=&quot;width: 100%; font-size: 12px;&quot; cellpadding=&quot;2&quot; cellspacing=&quot;0&quot;&gt;&lt;tbody style=&quot;font-size: 12px;&quot;&gt;&lt;tr style=&quot;font-size: 12px;&quot;&gt;&lt;td style=&quot;font-size: 12px;&quot;&gt;FK, PK&lt;/td&gt;&lt;td style=&quot;font-size: 12px;&quot;&gt;user_id INT&lt;/td&gt;&lt;/tr&gt;&lt;tr style=&quot;font-size: 12px;&quot;&gt;&lt;td style=&quot;font-size: 12px;&quot;&gt;&lt;br style=&quot;font-size: 12px;&quot;&gt;&lt;/td&gt;&lt;td style=&quot;font-size: 12px;&quot;&gt;key VARCHAR(255)&lt;/td&gt;&lt;/tr&gt;&lt;tr style=&quot;font-size: 12px;&quot;&gt;&lt;td style=&quot;font-size: 12px;&quot;&gt;&lt;/td&gt;&lt;td style=&quot;font-size: 12px;&quot;&gt;status BOOLEAN&lt;/td&gt;&lt;/tr&gt;&lt;/tbody&gt;&lt;/table&gt;" style="verticalAlign=top;align=left;overflow=fill;html=1;rounded=0;shadow=0;comic=0;labelBackgroundColor=none;strokeWidth=1;fontFamily=Verdana;fontSize=12;" parent="1" vertex="1">
          <mxGeometry x="-2520" y="2150" width="180" height="80" as="geometry" />
        </mxCell>
        <mxCell id="7crgOBvIinUt4j5GadzT-2" style="edgeStyle=orthogonalEdgeStyle;rounded=0;orthogonalLoop=1;jettySize=auto;html=1;exitX=0.5;exitY=0;exitDx=0;exitDy=0;entryX=0.5;entryY=1;entryDx=0;entryDy=0;fontColor=#000000;" parent="1" source="7crgOBvIinUt4j5GadzT-3" target="7crgOBvIinUt4j5GadzT-4" edge="1">
          <mxGeometry relative="1" as="geometry" />
        </mxCell>
        <mxCell id="7crgOBvIinUt4j5GadzT-3" value="&lt;div style=&quot;box-sizing: border-box; width: 100%; background: rgb(228, 228, 228); padding: 2px; font-size: 12px;&quot;&gt;carts&lt;/div&gt;&lt;table style=&quot;width: 100%; font-size: 12px;&quot; cellpadding=&quot;2&quot; cellspacing=&quot;0&quot;&gt;&lt;tbody style=&quot;font-size: 12px;&quot;&gt;&lt;tr style=&quot;font-size: 12px;&quot;&gt;&lt;td style=&quot;font-size: 12px;&quot;&gt;PK&lt;/td&gt;&lt;td style=&quot;font-size: 12px;&quot;&gt;id INT&lt;/td&gt;&lt;/tr&gt;&lt;tr style=&quot;font-size: 12px;&quot;&gt;&lt;td style=&quot;font-size: 12px;&quot;&gt;&lt;br style=&quot;font-size: 12px;&quot;&gt;&lt;/td&gt;&lt;td style=&quot;font-size: 12px;&quot;&gt;state ENUM&lt;/td&gt;&lt;/tr&gt;&lt;tr style=&quot;font-size: 12px;&quot;&gt;&lt;td style=&quot;font-size: 12px;&quot;&gt;FK&lt;/td&gt;&lt;td style=&quot;font-size: 12px;&quot;&gt;user_id&lt;/td&gt;&lt;/tr&gt;&lt;tr style=&quot;font-size: 12px;&quot;&gt;&lt;td style=&quot;font-size: 12px;&quot;&gt;&lt;br style=&quot;font-size: 12px;&quot;&gt;&lt;/td&gt;&lt;td style=&quot;font-size: 12px;&quot;&gt;&lt;br style=&quot;font-size: 12px;&quot;&gt;&lt;/td&gt;&lt;/tr&gt;&lt;/tbody&gt;&lt;/table&gt;" style="verticalAlign=top;align=left;overflow=fill;html=1;rounded=0;shadow=0;comic=0;labelBackgroundColor=none;strokeWidth=1;fontFamily=Verdana;fontSize=12;fillColor=#eeeeee;strokeColor=#36393d;" parent="1" vertex="1">
          <mxGeometry x="-2045" y="1740" width="180" height="80" as="geometry" />
        </mxCell>
        <mxCell id="7crgOBvIinUt4j5GadzT-4" value="&lt;div style=&quot;box-sizing: border-box; width: 100%; background: rgb(228, 228, 228); padding: 2px; font-size: 12px;&quot;&gt;cart_items&lt;/div&gt;&lt;table style=&quot;width: 100%; font-size: 12px;&quot; cellpadding=&quot;2&quot; cellspacing=&quot;0&quot;&gt;&lt;tbody style=&quot;font-size: 12px;&quot;&gt;&lt;tr style=&quot;font-size: 12px;&quot;&gt;&lt;td style=&quot;font-size: 12px;&quot;&gt;PK&lt;/td&gt;&lt;td style=&quot;font-size: 12px;&quot;&gt;id INT&lt;/td&gt;&lt;/tr&gt;&lt;tr style=&quot;font-size: 12px;&quot;&gt;&lt;td style=&quot;font-size: 12px;&quot;&gt;FK&lt;/td&gt;&lt;td style=&quot;font-size: 12px;&quot;&gt;product_id INT&lt;/td&gt;&lt;/tr&gt;&lt;tr style=&quot;font-size: 12px;&quot;&gt;&lt;td style=&quot;font-size: 12px;&quot;&gt;FK&lt;/td&gt;&lt;td style=&quot;font-size: 12px;&quot;&gt;cart_id INT&lt;/td&gt;&lt;/tr&gt;&lt;tr style=&quot;font-size: 12px;&quot;&gt;&lt;td style=&quot;font-size: 12px;&quot;&gt;&lt;br style=&quot;font-size: 12px;&quot;&gt;&lt;/td&gt;&lt;td style=&quot;font-size: 12px;&quot;&gt;quantity INT&lt;/td&gt;&lt;/tr&gt;&lt;/tbody&gt;&lt;/table&gt;" style="verticalAlign=top;align=left;overflow=fill;html=1;rounded=0;shadow=0;comic=0;labelBackgroundColor=none;strokeWidth=1;fontFamily=Verdana;fontSize=12;" parent="1" vertex="1">
          <mxGeometry x="-2045" y="1600" width="180" height="100" as="geometry" />
        </mxCell>
        <mxCell id="7crgOBvIinUt4j5GadzT-5" value="&lt;div style=&quot;box-sizing: border-box; width: 100%; background: rgb(228, 228, 228); padding: 2px; font-size: 12px;&quot;&gt;comments&lt;/div&gt;&lt;table style=&quot;width: 100%; font-size: 12px;&quot; cellpadding=&quot;2&quot; cellspacing=&quot;0&quot;&gt;&lt;tbody style=&quot;font-size: 12px;&quot;&gt;&lt;tr style=&quot;font-size: 12px;&quot;&gt;&lt;td style=&quot;font-size: 12px;&quot;&gt;PK&lt;/td&gt;&lt;td style=&quot;font-size: 12px;&quot;&gt;id INT&lt;/td&gt;&lt;/tr&gt;&lt;tr style=&quot;font-size: 12px;&quot;&gt;&lt;td style=&quot;font-size: 12px;&quot;&gt;FK&lt;/td&gt;&lt;td style=&quot;font-size: 12px;&quot;&gt;product_id_INT&lt;/td&gt;&lt;/tr&gt;&lt;tr style=&quot;font-size: 12px;&quot;&gt;&lt;td style=&quot;font-size: 12px;&quot;&gt;FK&amp;nbsp;&lt;/td&gt;&lt;td style=&quot;font-size: 12px;&quot;&gt;user_id INT&lt;/td&gt;&lt;/tr&gt;&lt;tr style=&quot;font-size: 12px;&quot;&gt;&lt;td style=&quot;font-size: 12px;&quot;&gt;&lt;br style=&quot;font-size: 12px;&quot;&gt;&lt;/td&gt;&lt;td style=&quot;font-size: 12px;&quot;&gt;content VARCHAR(255)&lt;/td&gt;&lt;/tr&gt;&lt;tr style=&quot;font-size: 12px;&quot;&gt;&lt;td style=&quot;font-size: 12px;&quot;&gt;&lt;br style=&quot;font-size: 12px;&quot;&gt;&lt;/td&gt;&lt;td style=&quot;font-size: 12px;&quot;&gt;left INT&lt;/td&gt;&lt;/tr&gt;&lt;tr style=&quot;font-size: 12px;&quot;&gt;&lt;td style=&quot;font-size: 12px;&quot;&gt;&lt;br style=&quot;font-size: 12px;&quot;&gt;&lt;/td&gt;&lt;td style=&quot;font-size: 12px;&quot;&gt;right INT&lt;/td&gt;&lt;/tr&gt;&lt;tr style=&quot;font-size: 12px;&quot;&gt;&lt;td style=&quot;font-size: 12px;&quot;&gt;FK&lt;br style=&quot;font-size: 12px;&quot;&gt;&lt;/td&gt;&lt;td style=&quot;font-size: 12px;&quot;&gt;parent_id&lt;/td&gt;&lt;/tr&gt;&lt;tr style=&quot;font-size: 12px;&quot;&gt;&lt;td style=&quot;font-size: 12px;&quot;&gt;&lt;br style=&quot;font-size: 12px;&quot;&gt;&lt;/td&gt;&lt;td style=&quot;font-size: 12px;&quot;&gt;&lt;br style=&quot;font-size: 12px;&quot;&gt;&lt;/td&gt;&lt;/tr&gt;&lt;tr style=&quot;font-size: 12px;&quot;&gt;&lt;td style=&quot;font-size: 12px;&quot;&gt;&lt;br style=&quot;font-size: 12px;&quot;&gt;&lt;/td&gt;&lt;td style=&quot;font-size: 12px;&quot;&gt;&lt;br style=&quot;font-size: 12px;&quot;&gt;&lt;/td&gt;&lt;/tr&gt;&lt;tr style=&quot;font-size: 12px;&quot;&gt;&lt;td style=&quot;font-size: 12px;&quot;&gt;&lt;br style=&quot;font-size: 12px;&quot;&gt;&lt;/td&gt;&lt;td style=&quot;font-size: 12px;&quot;&gt;&lt;br style=&quot;font-size: 12px;&quot;&gt;&lt;/td&gt;&lt;/tr&gt;&lt;tr style=&quot;font-size: 12px;&quot;&gt;&lt;td style=&quot;font-size: 12px;&quot;&gt;&lt;br style=&quot;font-size: 12px;&quot;&gt;&lt;/td&gt;&lt;td style=&quot;font-size: 12px;&quot;&gt;&lt;br style=&quot;font-size: 12px;&quot;&gt;&lt;/td&gt;&lt;/tr&gt;&lt;tr style=&quot;font-size: 12px;&quot;&gt;&lt;td style=&quot;font-size: 12px;&quot;&gt;&lt;br style=&quot;font-size: 12px;&quot;&gt;&lt;/td&gt;&lt;td style=&quot;font-size: 12px;&quot;&gt;&lt;br style=&quot;font-size: 12px;&quot;&gt;&lt;/td&gt;&lt;/tr&gt;&lt;tr style=&quot;font-size: 12px;&quot;&gt;&lt;td style=&quot;font-size: 12px;&quot;&gt;&lt;br style=&quot;font-size: 12px;&quot;&gt;&lt;/td&gt;&lt;td style=&quot;font-size: 12px;&quot;&gt;&lt;br style=&quot;font-size: 12px;&quot;&gt;&lt;/td&gt;&lt;/tr&gt;&lt;tr style=&quot;font-size: 12px;&quot;&gt;&lt;td style=&quot;font-size: 12px;&quot;&gt;&lt;br style=&quot;font-size: 12px;&quot;&gt;&lt;/td&gt;&lt;td style=&quot;font-size: 12px;&quot;&gt;&lt;br style=&quot;font-size: 12px;&quot;&gt;&lt;/td&gt;&lt;/tr&gt;&lt;tr style=&quot;font-size: 12px;&quot;&gt;&lt;td style=&quot;font-size: 12px;&quot;&gt;&lt;br style=&quot;font-size: 12px;&quot;&gt;&lt;/td&gt;&lt;td style=&quot;font-size: 12px;&quot;&gt;&lt;br style=&quot;font-size: 12px;&quot;&gt;&lt;/td&gt;&lt;/tr&gt;&lt;tr style=&quot;font-size: 12px;&quot;&gt;&lt;td style=&quot;font-size: 12px;&quot;&gt;&lt;br style=&quot;font-size: 12px;&quot;&gt;&lt;/td&gt;&lt;td style=&quot;font-size: 12px;&quot;&gt;&lt;br style=&quot;font-size: 12px;&quot;&gt;&lt;/td&gt;&lt;/tr&gt;&lt;tr style=&quot;font-size: 12px;&quot;&gt;&lt;td style=&quot;font-size: 12px;&quot;&gt;&lt;br style=&quot;font-size: 12px;&quot;&gt;&lt;/td&gt;&lt;td style=&quot;font-size: 12px;&quot;&gt;&lt;br style=&quot;font-size: 12px;&quot;&gt;&lt;/td&gt;&lt;/tr&gt;&lt;/tbody&gt;&lt;/table&gt;" style="verticalAlign=top;align=left;overflow=fill;html=1;rounded=0;shadow=0;comic=0;labelBackgroundColor=none;strokeWidth=1;fontFamily=Verdana;fontSize=12;fillColor=#ffcc99;strokeColor=#36393d;" parent="1" vertex="1">
          <mxGeometry x="-1970" y="2240" width="180" height="150" as="geometry" />
        </mxCell>
        <mxCell id="7crgOBvIinUt4j5GadzT-6" value="&lt;div style=&quot;box-sizing: border-box; width: 100%; background: rgb(228, 228, 228); padding: 2px; font-size: 12px;&quot;&gt;discounts_products&lt;/div&gt;&lt;table style=&quot;width: 100%; font-size: 12px;&quot; cellpadding=&quot;2&quot; cellspacing=&quot;0&quot;&gt;&lt;tbody style=&quot;font-size: 12px;&quot;&gt;&lt;tr style=&quot;font-size: 12px;&quot;&gt;&lt;td style=&quot;font-size: 12px;&quot;&gt;PK&lt;/td&gt;&lt;td style=&quot;font-size: 12px;&quot;&gt;id INT&lt;/td&gt;&lt;/tr&gt;&lt;tr style=&quot;font-size: 12px;&quot;&gt;&lt;td style=&quot;font-size: 12px;&quot;&gt;FK&lt;/td&gt;&lt;td style=&quot;font-size: 12px;&quot;&gt;discount_id INT&lt;/td&gt;&lt;/tr&gt;&lt;tr style=&quot;font-size: 12px;&quot;&gt;&lt;td style=&quot;font-size: 12px;&quot;&gt;FK&lt;/td&gt;&lt;td style=&quot;font-size: 12px;&quot;&gt;product_id INT&lt;/td&gt;&lt;/tr&gt;&lt;tr style=&quot;font-size: 12px;&quot;&gt;&lt;td style=&quot;font-size: 12px;&quot;&gt;&lt;br style=&quot;font-size: 12px;&quot;&gt;&lt;/td&gt;&lt;td style=&quot;font-size: 12px;&quot;&gt;&lt;br style=&quot;font-size: 12px;&quot;&gt;&lt;/td&gt;&lt;/tr&gt;&lt;tr style=&quot;font-size: 12px;&quot;&gt;&lt;td style=&quot;font-size: 12px;&quot;&gt;&lt;br style=&quot;font-size: 12px;&quot;&gt;&lt;/td&gt;&lt;td style=&quot;font-size: 12px;&quot;&gt;&lt;br style=&quot;font-size: 12px;&quot;&gt;&lt;/td&gt;&lt;/tr&gt;&lt;tr style=&quot;font-size: 12px;&quot;&gt;&lt;td style=&quot;font-size: 12px;&quot;&gt;&lt;br style=&quot;font-size: 12px;&quot;&gt;&lt;/td&gt;&lt;td style=&quot;font-size: 12px;&quot;&gt;&lt;br style=&quot;font-size: 12px;&quot;&gt;&lt;/td&gt;&lt;/tr&gt;&lt;tr style=&quot;font-size: 12px;&quot;&gt;&lt;td style=&quot;font-size: 12px;&quot;&gt;&lt;br style=&quot;font-size: 12px;&quot;&gt;&lt;/td&gt;&lt;td style=&quot;font-size: 12px;&quot;&gt;&lt;br style=&quot;font-size: 12px;&quot;&gt;&lt;/td&gt;&lt;/tr&gt;&lt;tr style=&quot;font-size: 12px;&quot;&gt;&lt;td style=&quot;font-size: 12px;&quot;&gt;&lt;br style=&quot;font-size: 12px;&quot;&gt;&lt;/td&gt;&lt;td style=&quot;font-size: 12px;&quot;&gt;&lt;br style=&quot;font-size: 12px;&quot;&gt;&lt;/td&gt;&lt;/tr&gt;&lt;tr style=&quot;font-size: 12px;&quot;&gt;&lt;td style=&quot;font-size: 12px;&quot;&gt;&lt;br style=&quot;font-size: 12px;&quot;&gt;&lt;/td&gt;&lt;td style=&quot;font-size: 12px;&quot;&gt;&lt;br style=&quot;font-size: 12px;&quot;&gt;&lt;/td&gt;&lt;/tr&gt;&lt;tr style=&quot;font-size: 12px;&quot;&gt;&lt;td style=&quot;font-size: 12px;&quot;&gt;&lt;br style=&quot;font-size: 12px;&quot;&gt;&lt;/td&gt;&lt;td style=&quot;font-size: 12px;&quot;&gt;&lt;br style=&quot;font-size: 12px;&quot;&gt;&lt;/td&gt;&lt;/tr&gt;&lt;tr style=&quot;font-size: 12px;&quot;&gt;&lt;td style=&quot;font-size: 12px;&quot;&gt;&lt;br style=&quot;font-size: 12px;&quot;&gt;&lt;/td&gt;&lt;td style=&quot;font-size: 12px;&quot;&gt;&lt;br style=&quot;font-size: 12px;&quot;&gt;&lt;/td&gt;&lt;/tr&gt;&lt;tr style=&quot;font-size: 12px;&quot;&gt;&lt;td style=&quot;font-size: 12px;&quot;&gt;&lt;br style=&quot;font-size: 12px;&quot;&gt;&lt;/td&gt;&lt;td style=&quot;font-size: 12px;&quot;&gt;&lt;br style=&quot;font-size: 12px;&quot;&gt;&lt;/td&gt;&lt;/tr&gt;&lt;tr style=&quot;font-size: 12px;&quot;&gt;&lt;td style=&quot;font-size: 12px;&quot;&gt;&lt;br style=&quot;font-size: 12px;&quot;&gt;&lt;/td&gt;&lt;td style=&quot;font-size: 12px;&quot;&gt;&lt;br style=&quot;font-size: 12px;&quot;&gt;&lt;/td&gt;&lt;/tr&gt;&lt;tr style=&quot;font-size: 12px;&quot;&gt;&lt;td style=&quot;font-size: 12px;&quot;&gt;&lt;br style=&quot;font-size: 12px;&quot;&gt;&lt;/td&gt;&lt;td style=&quot;font-size: 12px;&quot;&gt;&lt;br style=&quot;font-size: 12px;&quot;&gt;&lt;/td&gt;&lt;/tr&gt;&lt;tr style=&quot;font-size: 12px;&quot;&gt;&lt;td style=&quot;font-size: 12px;&quot;&gt;&lt;br style=&quot;font-size: 12px;&quot;&gt;&lt;/td&gt;&lt;td style=&quot;font-size: 12px;&quot;&gt;&lt;br style=&quot;font-size: 12px;&quot;&gt;&lt;/td&gt;&lt;/tr&gt;&lt;tr style=&quot;font-size: 12px;&quot;&gt;&lt;td style=&quot;font-size: 12px;&quot;&gt;&lt;br style=&quot;font-size: 12px;&quot;&gt;&lt;/td&gt;&lt;td style=&quot;font-size: 12px;&quot;&gt;&lt;br style=&quot;font-size: 12px;&quot;&gt;&lt;/td&gt;&lt;/tr&gt;&lt;tr style=&quot;font-size: 12px;&quot;&gt;&lt;td style=&quot;font-size: 12px;&quot;&gt;&lt;br style=&quot;font-size: 12px;&quot;&gt;&lt;/td&gt;&lt;td style=&quot;font-size: 12px;&quot;&gt;&lt;br style=&quot;font-size: 12px;&quot;&gt;&lt;/td&gt;&lt;/tr&gt;&lt;/tbody&gt;&lt;/table&gt;" style="verticalAlign=top;align=left;overflow=fill;html=1;rounded=0;shadow=0;comic=0;labelBackgroundColor=none;strokeWidth=1;fontFamily=Verdana;fontSize=12;fillColor=#ffff88;strokeColor=#36393d;" parent="1" vertex="1">
          <mxGeometry x="-1800" y="1580" width="210" height="80" as="geometry" />
        </mxCell>
        <mxCell id="7crgOBvIinUt4j5GadzT-7" value="&lt;div style=&quot;box-sizing: border-box; width: 100%; background: rgb(228, 228, 228); padding: 2px; font-size: 12px;&quot;&gt;inventories&lt;/div&gt;&lt;table style=&quot;width: 100%; font-size: 12px;&quot; cellpadding=&quot;2&quot; cellspacing=&quot;0&quot;&gt;&lt;tbody style=&quot;font-size: 12px;&quot;&gt;&lt;tr style=&quot;font-size: 12px;&quot;&gt;&lt;td style=&quot;font-size: 12px;&quot;&gt;PK&lt;/td&gt;&lt;td style=&quot;font-size: 12px;&quot;&gt;id&lt;/td&gt;&lt;/tr&gt;&lt;tr style=&quot;font-size: 12px;&quot;&gt;&lt;td style=&quot;font-size: 12px;&quot;&gt;FK&lt;/td&gt;&lt;td style=&quot;font-size: 12px;&quot;&gt;product_id VARCHAR(255)&lt;/td&gt;&lt;/tr&gt;&lt;tr style=&quot;font-size: 12px;&quot;&gt;&lt;td style=&quot;font-size: 12px;&quot;&gt;&lt;/td&gt;&lt;td style=&quot;font-size: 12px;&quot;&gt;location VARCHAR(255)&lt;/td&gt;&lt;/tr&gt;&lt;tr style=&quot;font-size: 12px;&quot;&gt;&lt;td style=&quot;font-size: 12px;&quot;&gt;&lt;br style=&quot;font-size: 12px;&quot;&gt;&lt;/td&gt;&lt;td style=&quot;font-size: 12px;&quot;&gt;stock INT&lt;/td&gt;&lt;/tr&gt;&lt;tr style=&quot;font-size: 12px;&quot;&gt;&lt;td style=&quot;font-size: 12px;&quot;&gt;FK&lt;/td&gt;&lt;td style=&quot;font-size: 12px;&quot;&gt;shop_id INT&lt;/td&gt;&lt;/tr&gt;&lt;tr style=&quot;font-size: 12px;&quot;&gt;&lt;td style=&quot;font-size: 12px;&quot;&gt;&lt;br style=&quot;font-size: 12px;&quot;&gt;&lt;/td&gt;&lt;td style=&quot;font-size: 12px;&quot;&gt;&lt;br style=&quot;font-size: 12px;&quot;&gt;&lt;/td&gt;&lt;/tr&gt;&lt;tr style=&quot;font-size: 12px;&quot;&gt;&lt;td style=&quot;font-size: 12px;&quot;&gt;&lt;br style=&quot;font-size: 12px;&quot;&gt;&lt;/td&gt;&lt;td style=&quot;font-size: 12px;&quot;&gt;&lt;br style=&quot;font-size: 12px;&quot;&gt;&lt;/td&gt;&lt;/tr&gt;&lt;tr style=&quot;font-size: 12px;&quot;&gt;&lt;td style=&quot;font-size: 12px;&quot;&gt;&lt;br style=&quot;font-size: 12px;&quot;&gt;&lt;/td&gt;&lt;td style=&quot;font-size: 12px;&quot;&gt;&lt;br style=&quot;font-size: 12px;&quot;&gt;&lt;/td&gt;&lt;/tr&gt;&lt;tr style=&quot;font-size: 12px;&quot;&gt;&lt;td style=&quot;font-size: 12px;&quot;&gt;&lt;br style=&quot;font-size: 12px;&quot;&gt;&lt;/td&gt;&lt;td style=&quot;font-size: 12px;&quot;&gt;&lt;br style=&quot;font-size: 12px;&quot;&gt;&lt;/td&gt;&lt;/tr&gt;&lt;tr style=&quot;font-size: 12px;&quot;&gt;&lt;td style=&quot;font-size: 12px;&quot;&gt;&lt;br style=&quot;font-size: 12px;&quot;&gt;&lt;/td&gt;&lt;td style=&quot;font-size: 12px;&quot;&gt;&lt;br style=&quot;font-size: 12px;&quot;&gt;&lt;/td&gt;&lt;/tr&gt;&lt;tr style=&quot;font-size: 12px;&quot;&gt;&lt;td style=&quot;font-size: 12px;&quot;&gt;&lt;br style=&quot;font-size: 12px;&quot;&gt;&lt;/td&gt;&lt;td style=&quot;font-size: 12px;&quot;&gt;&lt;br style=&quot;font-size: 12px;&quot;&gt;&lt;/td&gt;&lt;/tr&gt;&lt;tr style=&quot;font-size: 12px;&quot;&gt;&lt;td style=&quot;font-size: 12px;&quot;&gt;&lt;br style=&quot;font-size: 12px;&quot;&gt;&lt;/td&gt;&lt;td style=&quot;font-size: 12px;&quot;&gt;&lt;br style=&quot;font-size: 12px;&quot;&gt;&lt;/td&gt;&lt;/tr&gt;&lt;tr style=&quot;font-size: 12px;&quot;&gt;&lt;td style=&quot;font-size: 12px;&quot;&gt;&lt;br style=&quot;font-size: 12px;&quot;&gt;&lt;/td&gt;&lt;td style=&quot;font-size: 12px;&quot;&gt;&lt;br style=&quot;font-size: 12px;&quot;&gt;&lt;/td&gt;&lt;/tr&gt;&lt;tr style=&quot;font-size: 12px;&quot;&gt;&lt;td style=&quot;font-size: 12px;&quot;&gt;&lt;br style=&quot;font-size: 12px;&quot;&gt;&lt;/td&gt;&lt;td style=&quot;font-size: 12px;&quot;&gt;&lt;br style=&quot;font-size: 12px;&quot;&gt;&lt;/td&gt;&lt;/tr&gt;&lt;tr style=&quot;font-size: 12px;&quot;&gt;&lt;td style=&quot;font-size: 12px;&quot;&gt;&lt;br style=&quot;font-size: 12px;&quot;&gt;&lt;/td&gt;&lt;td style=&quot;font-size: 12px;&quot;&gt;&lt;br style=&quot;font-size: 12px;&quot;&gt;&lt;/td&gt;&lt;/tr&gt;&lt;tr style=&quot;font-size: 12px;&quot;&gt;&lt;td style=&quot;font-size: 12px;&quot;&gt;&lt;br style=&quot;font-size: 12px;&quot;&gt;&lt;/td&gt;&lt;td style=&quot;font-size: 12px;&quot;&gt;&lt;br style=&quot;font-size: 12px;&quot;&gt;&lt;/td&gt;&lt;/tr&gt;&lt;tr style=&quot;font-size: 12px;&quot;&gt;&lt;td style=&quot;font-size: 12px;&quot;&gt;&lt;br style=&quot;font-size: 12px;&quot;&gt;&lt;/td&gt;&lt;td style=&quot;font-size: 12px;&quot;&gt;&lt;br style=&quot;font-size: 12px;&quot;&gt;&lt;/td&gt;&lt;/tr&gt;&lt;/tbody&gt;&lt;/table&gt;" style="verticalAlign=top;align=left;overflow=fill;html=1;rounded=0;shadow=0;comic=0;labelBackgroundColor=none;strokeWidth=1;fontFamily=Verdana;fontSize=12;fillColor=#ffcccc;strokeColor=#36393d;" parent="1" vertex="1">
          <mxGeometry x="-1755" y="2110" width="210" height="125" as="geometry" />
        </mxCell>
        <mxCell id="7crgOBvIinUt4j5GadzT-8" style="edgeStyle=orthogonalEdgeStyle;rounded=0;orthogonalLoop=1;jettySize=auto;html=1;exitX=1;exitY=0.5;exitDx=0;exitDy=0;entryX=1;entryY=0;entryDx=0;entryDy=0;fontColor=#000000;" parent="1" source="7crgOBvIinUt4j5GadzT-10" edge="1">
          <mxGeometry relative="1" as="geometry">
            <Array as="points">
              <mxPoint x="-2150" y="1683" />
              <mxPoint x="-2150" y="1900" />
            </Array>
            <mxPoint x="-2100" y="1900" as="targetPoint" />
          </mxGeometry>
        </mxCell>
        <mxCell id="7crgOBvIinUt4j5GadzT-9" value="" style="edgeStyle=orthogonalEdgeStyle;rounded=0;orthogonalLoop=1;jettySize=auto;html=1;fontColor=#000000;" parent="1" source="7crgOBvIinUt4j5GadzT-10" target="7crgOBvIinUt4j5GadzT-76" edge="1">
          <mxGeometry relative="1" as="geometry" />
        </mxCell>
        <mxCell id="7crgOBvIinUt4j5GadzT-10" value="&lt;div style=&quot;box-sizing: border-box; width: 100%; background: rgb(228, 228, 228); padding: 2px; font-size: 12px;&quot;&gt;noficications&lt;/div&gt;&lt;table style=&quot;width: 100%; font-size: 12px;&quot; cellpadding=&quot;2&quot; cellspacing=&quot;0&quot;&gt;&lt;tbody style=&quot;font-size: 12px;&quot;&gt;&lt;tr style=&quot;font-size: 12px;&quot;&gt;&lt;td style=&quot;font-size: 12px;&quot;&gt;PK&lt;/td&gt;&lt;td style=&quot;font-size: 12px;&quot;&gt;id INT&lt;/td&gt;&lt;/tr&gt;&lt;tr style=&quot;font-size: 12px;&quot;&gt;&lt;td style=&quot;font-size: 12px;&quot;&gt;&lt;br style=&quot;font-size: 12px;&quot;&gt;&lt;/td&gt;&lt;td style=&quot;font-size: 12px;&quot;&gt;type VARCHAR(255)&lt;/td&gt;&lt;/tr&gt;&lt;tr style=&quot;font-size: 12px;&quot;&gt;&lt;td style=&quot;font-size: 12px;&quot;&gt;FK&lt;/td&gt;&lt;td style=&quot;font-size: 12px;&quot;&gt;sender_id INT&lt;/td&gt;&lt;/tr&gt;&lt;tr style=&quot;font-size: 12px;&quot;&gt;&lt;td style=&quot;font-size: 12px;&quot;&gt;FK&lt;/td&gt;&lt;td style=&quot;font-size: 12px;&quot;&gt;received_id INT&lt;/td&gt;&lt;/tr&gt;&lt;tr style=&quot;font-size: 12px;&quot;&gt;&lt;td style=&quot;font-size: 12px;&quot;&gt;&lt;br style=&quot;font-size: 12px;&quot;&gt;&lt;/td&gt;&lt;td style=&quot;font-size: 12px;&quot;&gt;content VARCHAR(255)&lt;/td&gt;&lt;/tr&gt;&lt;tr style=&quot;font-size: 12px;&quot;&gt;&lt;td style=&quot;font-size: 12px;&quot;&gt;&lt;br style=&quot;font-size: 12px;&quot;&gt;&lt;/td&gt;&lt;td style=&quot;font-size: 12px;&quot;&gt;&lt;br style=&quot;font-size: 12px;&quot;&gt;&lt;/td&gt;&lt;/tr&gt;&lt;tr style=&quot;font-size: 12px;&quot;&gt;&lt;td style=&quot;font-size: 12px;&quot;&gt;&lt;br style=&quot;font-size: 12px;&quot;&gt;&lt;/td&gt;&lt;td style=&quot;font-size: 12px;&quot;&gt;&lt;br style=&quot;font-size: 12px;&quot;&gt;&lt;/td&gt;&lt;/tr&gt;&lt;tr style=&quot;font-size: 12px;&quot;&gt;&lt;td style=&quot;font-size: 12px;&quot;&gt;&lt;br style=&quot;font-size: 12px;&quot;&gt;&lt;/td&gt;&lt;td style=&quot;font-size: 12px;&quot;&gt;&lt;br style=&quot;font-size: 12px;&quot;&gt;&lt;/td&gt;&lt;/tr&gt;&lt;tr style=&quot;font-size: 12px;&quot;&gt;&lt;td style=&quot;font-size: 12px;&quot;&gt;&lt;br style=&quot;font-size: 12px;&quot;&gt;&lt;/td&gt;&lt;td style=&quot;font-size: 12px;&quot;&gt;&lt;br style=&quot;font-size: 12px;&quot;&gt;&lt;/td&gt;&lt;/tr&gt;&lt;tr style=&quot;font-size: 12px;&quot;&gt;&lt;td style=&quot;font-size: 12px;&quot;&gt;&lt;br style=&quot;font-size: 12px;&quot;&gt;&lt;/td&gt;&lt;td style=&quot;font-size: 12px;&quot;&gt;&lt;br style=&quot;font-size: 12px;&quot;&gt;&lt;/td&gt;&lt;/tr&gt;&lt;tr style=&quot;font-size: 12px;&quot;&gt;&lt;td style=&quot;font-size: 12px;&quot;&gt;&lt;br style=&quot;font-size: 12px;&quot;&gt;&lt;/td&gt;&lt;td style=&quot;font-size: 12px;&quot;&gt;&lt;br style=&quot;font-size: 12px;&quot;&gt;&lt;/td&gt;&lt;/tr&gt;&lt;tr style=&quot;font-size: 12px;&quot;&gt;&lt;td style=&quot;font-size: 12px;&quot;&gt;&lt;br style=&quot;font-size: 12px;&quot;&gt;&lt;/td&gt;&lt;td style=&quot;font-size: 12px;&quot;&gt;&lt;br style=&quot;font-size: 12px;&quot;&gt;&lt;/td&gt;&lt;/tr&gt;&lt;tr style=&quot;font-size: 12px;&quot;&gt;&lt;td style=&quot;font-size: 12px;&quot;&gt;&lt;br style=&quot;font-size: 12px;&quot;&gt;&lt;/td&gt;&lt;td style=&quot;font-size: 12px;&quot;&gt;&lt;br style=&quot;font-size: 12px;&quot;&gt;&lt;/td&gt;&lt;/tr&gt;&lt;tr style=&quot;font-size: 12px;&quot;&gt;&lt;td style=&quot;font-size: 12px;&quot;&gt;&lt;br style=&quot;font-size: 12px;&quot;&gt;&lt;/td&gt;&lt;td style=&quot;font-size: 12px;&quot;&gt;&lt;br style=&quot;font-size: 12px;&quot;&gt;&lt;/td&gt;&lt;/tr&gt;&lt;tr style=&quot;font-size: 12px;&quot;&gt;&lt;td style=&quot;font-size: 12px;&quot;&gt;&lt;br style=&quot;font-size: 12px;&quot;&gt;&lt;/td&gt;&lt;td style=&quot;font-size: 12px;&quot;&gt;&lt;br style=&quot;font-size: 12px;&quot;&gt;&lt;/td&gt;&lt;/tr&gt;&lt;tr style=&quot;font-size: 12px;&quot;&gt;&lt;td style=&quot;font-size: 12px;&quot;&gt;&lt;br style=&quot;font-size: 12px;&quot;&gt;&lt;/td&gt;&lt;td style=&quot;font-size: 12px;&quot;&gt;&lt;br style=&quot;font-size: 12px;&quot;&gt;&lt;/td&gt;&lt;/tr&gt;&lt;tr style=&quot;font-size: 12px;&quot;&gt;&lt;td style=&quot;font-size: 12px;&quot;&gt;&lt;br style=&quot;font-size: 12px;&quot;&gt;&lt;/td&gt;&lt;td style=&quot;font-size: 12px;&quot;&gt;&lt;br style=&quot;font-size: 12px;&quot;&gt;&lt;/td&gt;&lt;/tr&gt;&lt;/tbody&gt;&lt;/table&gt;" style="verticalAlign=top;align=left;overflow=fill;html=1;rounded=0;shadow=0;comic=0;labelBackgroundColor=none;strokeWidth=1;fontFamily=Verdana;fontSize=12;fillColor=#eeeeee;strokeColor=#36393d;" parent="1" vertex="1">
          <mxGeometry x="-2530" y="1620" width="210" height="125" as="geometry" />
        </mxCell>
        <mxCell id="7crgOBvIinUt4j5GadzT-11" style="edgeStyle=orthogonalEdgeStyle;rounded=0;orthogonalLoop=1;jettySize=auto;html=1;exitX=0.5;exitY=0;exitDx=0;exitDy=0;entryX=0;entryY=0.5;entryDx=0;entryDy=0;fontColor=#000000;" parent="1" source="7crgOBvIinUt4j5GadzT-12" target="7crgOBvIinUt4j5GadzT-13" edge="1">
          <mxGeometry relative="1" as="geometry" />
        </mxCell>
        <mxCell id="7crgOBvIinUt4j5GadzT-12" value="&lt;div style=&quot;box-sizing: border-box; width: 100%; background: rgb(228, 228, 228); padding: 2px; font-size: 12px;&quot;&gt;orders&lt;/div&gt;&lt;table style=&quot;width: 100%; font-size: 12px;&quot; cellpadding=&quot;2&quot; cellspacing=&quot;0&quot;&gt;&lt;tbody style=&quot;font-size: 12px;&quot;&gt;&lt;tr style=&quot;font-size: 12px;&quot;&gt;&lt;td style=&quot;font-size: 12px;&quot;&gt;PK&lt;/td&gt;&lt;td style=&quot;font-size: 12px;&quot;&gt;id INT&lt;/td&gt;&lt;/tr&gt;&lt;tr style=&quot;font-size: 12px;&quot;&gt;&lt;td style=&quot;font-size: 12px;&quot;&gt;FK&lt;/td&gt;&lt;td style=&quot;font-size: 12px;&quot;&gt;user_id INT&lt;/td&gt;&lt;/tr&gt;&lt;tr style=&quot;font-size: 12px;&quot;&gt;&lt;td style=&quot;font-size: 12px;&quot;&gt;&lt;/td&gt;&lt;td style=&quot;font-size: 12px;&quot;&gt;check_out VARCHAR(255)&lt;/td&gt;&lt;/tr&gt;&lt;tr style=&quot;font-size: 12px;&quot;&gt;&lt;td style=&quot;font-size: 12px;&quot;&gt;&lt;br style=&quot;font-size: 12px;&quot;&gt;&lt;/td&gt;&lt;td style=&quot;font-size: 12px;&quot;&gt;shipping VARCHAR(255)&lt;/td&gt;&lt;/tr&gt;&lt;tr style=&quot;font-size: 12px;&quot;&gt;&lt;td style=&quot;font-size: 12px;&quot;&gt;&lt;br style=&quot;font-size: 12px;&quot;&gt;&lt;/td&gt;&lt;td style=&quot;font-size: 12px;&quot;&gt;payment VARCHAR(255)&lt;/td&gt;&lt;/tr&gt;&lt;tr style=&quot;font-size: 12px;&quot;&gt;&lt;td style=&quot;font-size: 12px;&quot;&gt;&lt;br style=&quot;font-size: 12px;&quot;&gt;&lt;/td&gt;&lt;td style=&quot;font-size: 12px;&quot;&gt;status&lt;/td&gt;&lt;/tr&gt;&lt;tr style=&quot;font-size: 12px;&quot;&gt;&lt;td style=&quot;font-size: 12px;&quot;&gt;&lt;br style=&quot;font-size: 12px;&quot;&gt;&lt;/td&gt;&lt;td style=&quot;font-size: 12px;&quot;&gt;tracking_number DATE&lt;/td&gt;&lt;/tr&gt;&lt;tr style=&quot;font-size: 12px;&quot;&gt;&lt;td style=&quot;font-size: 12px;&quot;&gt;&lt;br style=&quot;font-size: 12px;&quot;&gt;&lt;/td&gt;&lt;td style=&quot;font-size: 12px;&quot;&gt;&lt;br style=&quot;font-size: 12px;&quot;&gt;&lt;/td&gt;&lt;/tr&gt;&lt;tr style=&quot;font-size: 12px;&quot;&gt;&lt;td style=&quot;font-size: 12px;&quot;&gt;&lt;br style=&quot;font-size: 12px;&quot;&gt;&lt;/td&gt;&lt;td style=&quot;font-size: 12px;&quot;&gt;&lt;br style=&quot;font-size: 12px;&quot;&gt;&lt;/td&gt;&lt;/tr&gt;&lt;tr style=&quot;font-size: 12px;&quot;&gt;&lt;td style=&quot;font-size: 12px;&quot;&gt;&lt;br style=&quot;font-size: 12px;&quot;&gt;&lt;/td&gt;&lt;td style=&quot;font-size: 12px;&quot;&gt;&lt;br style=&quot;font-size: 12px;&quot;&gt;&lt;/td&gt;&lt;/tr&gt;&lt;tr style=&quot;font-size: 12px;&quot;&gt;&lt;td style=&quot;font-size: 12px;&quot;&gt;&lt;br style=&quot;font-size: 12px;&quot;&gt;&lt;/td&gt;&lt;td style=&quot;font-size: 12px;&quot;&gt;&lt;br style=&quot;font-size: 12px;&quot;&gt;&lt;/td&gt;&lt;/tr&gt;&lt;tr style=&quot;font-size: 12px;&quot;&gt;&lt;td style=&quot;font-size: 12px;&quot;&gt;&lt;br style=&quot;font-size: 12px;&quot;&gt;&lt;/td&gt;&lt;td style=&quot;font-size: 12px;&quot;&gt;&lt;br style=&quot;font-size: 12px;&quot;&gt;&lt;/td&gt;&lt;/tr&gt;&lt;tr style=&quot;font-size: 12px;&quot;&gt;&lt;td style=&quot;font-size: 12px;&quot;&gt;&lt;br style=&quot;font-size: 12px;&quot;&gt;&lt;/td&gt;&lt;td style=&quot;font-size: 12px;&quot;&gt;&lt;br style=&quot;font-size: 12px;&quot;&gt;&lt;/td&gt;&lt;/tr&gt;&lt;tr style=&quot;font-size: 12px;&quot;&gt;&lt;td style=&quot;font-size: 12px;&quot;&gt;&lt;br style=&quot;font-size: 12px;&quot;&gt;&lt;/td&gt;&lt;td style=&quot;font-size: 12px;&quot;&gt;&lt;br style=&quot;font-size: 12px;&quot;&gt;&lt;/td&gt;&lt;/tr&gt;&lt;tr style=&quot;font-size: 12px;&quot;&gt;&lt;td style=&quot;font-size: 12px;&quot;&gt;&lt;br style=&quot;font-size: 12px;&quot;&gt;&lt;/td&gt;&lt;td style=&quot;font-size: 12px;&quot;&gt;&lt;br style=&quot;font-size: 12px;&quot;&gt;&lt;/td&gt;&lt;/tr&gt;&lt;tr style=&quot;font-size: 12px;&quot;&gt;&lt;td style=&quot;font-size: 12px;&quot;&gt;&lt;br style=&quot;font-size: 12px;&quot;&gt;&lt;/td&gt;&lt;td style=&quot;font-size: 12px;&quot;&gt;&lt;br style=&quot;font-size: 12px;&quot;&gt;&lt;/td&gt;&lt;/tr&gt;&lt;tr style=&quot;font-size: 12px;&quot;&gt;&lt;td style=&quot;font-size: 12px;&quot;&gt;&lt;br style=&quot;font-size: 12px;&quot;&gt;&lt;/td&gt;&lt;td style=&quot;font-size: 12px;&quot;&gt;&lt;br style=&quot;font-size: 12px;&quot;&gt;&lt;/td&gt;&lt;/tr&gt;&lt;/tbody&gt;&lt;/table&gt;" style="verticalAlign=top;align=left;overflow=fill;html=1;rounded=0;shadow=0;comic=0;labelBackgroundColor=none;strokeWidth=1;fontFamily=Verdana;fontSize=12;fillColor=#ffff88;strokeColor=#36393d;" parent="1" vertex="1">
          <mxGeometry x="-1500" y="2045" width="210" height="160" as="geometry" />
        </mxCell>
        <mxCell id="7crgOBvIinUt4j5GadzT-13" value="&lt;div style=&quot;box-sizing: border-box; width: 100%; background: rgb(228, 228, 228); padding: 2px; font-size: 12px;&quot;&gt;order_details&lt;/div&gt;&lt;table style=&quot;width: 100%; font-size: 12px;&quot; cellpadding=&quot;2&quot; cellspacing=&quot;0&quot;&gt;&lt;tbody style=&quot;font-size: 12px;&quot;&gt;&lt;tr style=&quot;font-size: 12px;&quot;&gt;&lt;td style=&quot;font-size: 12px;&quot;&gt;PK&lt;/td&gt;&lt;td style=&quot;font-size: 12px;&quot;&gt;id INT&lt;/td&gt;&lt;/tr&gt;&lt;tr style=&quot;font-size: 12px;&quot;&gt;&lt;td style=&quot;font-size: 12px;&quot;&gt;FK&lt;/td&gt;&lt;td style=&quot;font-size: 12px;&quot;&gt;order_id INT&lt;/td&gt;&lt;/tr&gt;&lt;tr style=&quot;font-size: 12px;&quot;&gt;&lt;td style=&quot;font-size: 12px;&quot;&gt;FK&lt;/td&gt;&lt;td style=&quot;font-size: 12px;&quot;&gt;product_id INT&lt;/td&gt;&lt;/tr&gt;&lt;tr style=&quot;font-size: 12px;&quot;&gt;&lt;td style=&quot;font-size: 12px;&quot;&gt;&lt;br style=&quot;font-size: 12px;&quot;&gt;&lt;/td&gt;&lt;td style=&quot;font-size: 12px;&quot;&gt;quantity INT&lt;/td&gt;&lt;/tr&gt;&lt;tr style=&quot;font-size: 12px;&quot;&gt;&lt;td style=&quot;font-size: 12px;&quot;&gt;&lt;br style=&quot;font-size: 12px;&quot;&gt;&lt;/td&gt;&lt;td style=&quot;font-size: 12px;&quot;&gt;&lt;br style=&quot;font-size: 12px;&quot;&gt;&lt;/td&gt;&lt;/tr&gt;&lt;tr style=&quot;font-size: 12px;&quot;&gt;&lt;td style=&quot;font-size: 12px;&quot;&gt;&lt;br style=&quot;font-size: 12px;&quot;&gt;&lt;/td&gt;&lt;td style=&quot;font-size: 12px;&quot;&gt;&lt;br style=&quot;font-size: 12px;&quot;&gt;&lt;/td&gt;&lt;/tr&gt;&lt;tr style=&quot;font-size: 12px;&quot;&gt;&lt;td style=&quot;font-size: 12px;&quot;&gt;&lt;br style=&quot;font-size: 12px;&quot;&gt;&lt;/td&gt;&lt;td style=&quot;font-size: 12px;&quot;&gt;&lt;br style=&quot;font-size: 12px;&quot;&gt;&lt;/td&gt;&lt;/tr&gt;&lt;tr style=&quot;font-size: 12px;&quot;&gt;&lt;td style=&quot;font-size: 12px;&quot;&gt;&lt;br style=&quot;font-size: 12px;&quot;&gt;&lt;/td&gt;&lt;td style=&quot;font-size: 12px;&quot;&gt;&lt;br style=&quot;font-size: 12px;&quot;&gt;&lt;/td&gt;&lt;/tr&gt;&lt;tr style=&quot;font-size: 12px;&quot;&gt;&lt;td style=&quot;font-size: 12px;&quot;&gt;&lt;br style=&quot;font-size: 12px;&quot;&gt;&lt;/td&gt;&lt;td style=&quot;font-size: 12px;&quot;&gt;&lt;br style=&quot;font-size: 12px;&quot;&gt;&lt;/td&gt;&lt;/tr&gt;&lt;tr style=&quot;font-size: 12px;&quot;&gt;&lt;td style=&quot;font-size: 12px;&quot;&gt;&lt;br style=&quot;font-size: 12px;&quot;&gt;&lt;/td&gt;&lt;td style=&quot;font-size: 12px;&quot;&gt;&lt;br style=&quot;font-size: 12px;&quot;&gt;&lt;/td&gt;&lt;/tr&gt;&lt;tr style=&quot;font-size: 12px;&quot;&gt;&lt;td style=&quot;font-size: 12px;&quot;&gt;&lt;br style=&quot;font-size: 12px;&quot;&gt;&lt;/td&gt;&lt;td style=&quot;font-size: 12px;&quot;&gt;&lt;br style=&quot;font-size: 12px;&quot;&gt;&lt;/td&gt;&lt;/tr&gt;&lt;tr style=&quot;font-size: 12px;&quot;&gt;&lt;td style=&quot;font-size: 12px;&quot;&gt;&lt;br style=&quot;font-size: 12px;&quot;&gt;&lt;/td&gt;&lt;td style=&quot;font-size: 12px;&quot;&gt;&lt;br style=&quot;font-size: 12px;&quot;&gt;&lt;/td&gt;&lt;/tr&gt;&lt;tr style=&quot;font-size: 12px;&quot;&gt;&lt;td style=&quot;font-size: 12px;&quot;&gt;&lt;br style=&quot;font-size: 12px;&quot;&gt;&lt;/td&gt;&lt;td style=&quot;font-size: 12px;&quot;&gt;&lt;br style=&quot;font-size: 12px;&quot;&gt;&lt;/td&gt;&lt;/tr&gt;&lt;tr style=&quot;font-size: 12px;&quot;&gt;&lt;td style=&quot;font-size: 12px;&quot;&gt;&lt;br style=&quot;font-size: 12px;&quot;&gt;&lt;/td&gt;&lt;td style=&quot;font-size: 12px;&quot;&gt;&lt;br style=&quot;font-size: 12px;&quot;&gt;&lt;/td&gt;&lt;/tr&gt;&lt;tr style=&quot;font-size: 12px;&quot;&gt;&lt;td style=&quot;font-size: 12px;&quot;&gt;&lt;br style=&quot;font-size: 12px;&quot;&gt;&lt;/td&gt;&lt;td style=&quot;font-size: 12px;&quot;&gt;&lt;br style=&quot;font-size: 12px;&quot;&gt;&lt;/td&gt;&lt;/tr&gt;&lt;tr style=&quot;font-size: 12px;&quot;&gt;&lt;td style=&quot;font-size: 12px;&quot;&gt;&lt;br style=&quot;font-size: 12px;&quot;&gt;&lt;/td&gt;&lt;td style=&quot;font-size: 12px;&quot;&gt;&lt;br style=&quot;font-size: 12px;&quot;&gt;&lt;/td&gt;&lt;/tr&gt;&lt;tr style=&quot;font-size: 12px;&quot;&gt;&lt;td style=&quot;font-size: 12px;&quot;&gt;&lt;br style=&quot;font-size: 12px;&quot;&gt;&lt;/td&gt;&lt;td style=&quot;font-size: 12px;&quot;&gt;&lt;br style=&quot;font-size: 12px;&quot;&gt;&lt;/td&gt;&lt;/tr&gt;&lt;/tbody&gt;&lt;/table&gt;" style="verticalAlign=top;align=left;overflow=fill;html=1;rounded=0;shadow=0;comic=0;labelBackgroundColor=none;strokeWidth=1;fontFamily=Verdana;fontSize=12;fillColor=#cce5ff;strokeColor=#36393d;" parent="1" vertex="1">
          <mxGeometry x="-1530" y="1900" width="210" height="100" as="geometry" />
        </mxCell>
        <mxCell id="7crgOBvIinUt4j5GadzT-14" value="&lt;div style=&quot;box-sizing: border-box; width: 100%; background: rgb(228, 228, 228); padding: 2px; font-size: 12px;&quot;&gt;product_attributes&lt;/div&gt;&lt;table style=&quot;width: 100%; font-size: 12px;&quot; cellpadding=&quot;2&quot; cellspacing=&quot;0&quot;&gt;&lt;tbody style=&quot;font-size: 12px;&quot;&gt;&lt;tr style=&quot;font-size: 12px;&quot;&gt;&lt;td style=&quot;font-size: 12px;&quot;&gt;PK&lt;/td&gt;&lt;td style=&quot;font-size: 12px;&quot;&gt;id INT&lt;/td&gt;&lt;/tr&gt;&lt;tr style=&quot;font-size: 12px;&quot;&gt;&lt;td style=&quot;font-size: 12px;&quot;&gt;FK&lt;/td&gt;&lt;td style=&quot;font-size: 12px;&quot;&gt;product_id INT&lt;/td&gt;&lt;/tr&gt;&lt;tr style=&quot;font-size: 12px;&quot;&gt;&lt;td style=&quot;font-size: 12px;&quot;&gt;&lt;/td&gt;&lt;td style=&quot;font-size: 12px;&quot;&gt;brand VARCHAR(255)&lt;/td&gt;&lt;/tr&gt;&lt;tr style=&quot;font-size: 12px;&quot;&gt;&lt;td style=&quot;font-size: 12px;&quot;&gt;&lt;br style=&quot;font-size: 12px;&quot;&gt;&lt;/td&gt;&lt;td style=&quot;font-size: 12px;&quot;&gt;size VARCHAR(255)&lt;/td&gt;&lt;/tr&gt;&lt;tr style=&quot;font-size: 12px;&quot;&gt;&lt;td style=&quot;font-size: 12px;&quot;&gt;&lt;br style=&quot;font-size: 12px;&quot;&gt;&lt;/td&gt;&lt;td style=&quot;font-size: 12px;&quot;&gt;material VARCHAR(255)&lt;/td&gt;&lt;/tr&gt;&lt;tr style=&quot;font-size: 12px;&quot;&gt;&lt;td style=&quot;font-size: 12px;&quot;&gt;&lt;br style=&quot;font-size: 12px;&quot;&gt;&lt;/td&gt;&lt;td style=&quot;font-size: 12px;&quot;&gt;manufacturer VARCHAR(255)&lt;/td&gt;&lt;/tr&gt;&lt;tr style=&quot;font-size: 12px;&quot;&gt;&lt;td style=&quot;font-size: 12px;&quot;&gt;&lt;br style=&quot;font-size: 12px;&quot;&gt;&lt;/td&gt;&lt;td style=&quot;font-size: 12px;&quot;&gt;model VARCHAR(255)&lt;/td&gt;&lt;/tr&gt;&lt;tr style=&quot;font-size: 12px;&quot;&gt;&lt;td style=&quot;font-size: 12px;&quot;&gt;&lt;br style=&quot;font-size: 12px;&quot;&gt;&lt;/td&gt;&lt;td style=&quot;font-size: 12px;&quot;&gt;&lt;br style=&quot;font-size: 12px;&quot;&gt;&lt;/td&gt;&lt;/tr&gt;&lt;tr style=&quot;font-size: 12px;&quot;&gt;&lt;td style=&quot;font-size: 12px;&quot;&gt;&lt;br style=&quot;font-size: 12px;&quot;&gt;&lt;/td&gt;&lt;td style=&quot;font-size: 12px;&quot;&gt;&lt;br style=&quot;font-size: 12px;&quot;&gt;&lt;/td&gt;&lt;/tr&gt;&lt;tr style=&quot;font-size: 12px;&quot;&gt;&lt;td style=&quot;font-size: 12px;&quot;&gt;&lt;br style=&quot;font-size: 12px;&quot;&gt;&lt;/td&gt;&lt;td style=&quot;font-size: 12px;&quot;&gt;&lt;br style=&quot;font-size: 12px;&quot;&gt;&lt;/td&gt;&lt;/tr&gt;&lt;tr style=&quot;font-size: 12px;&quot;&gt;&lt;td style=&quot;font-size: 12px;&quot;&gt;&lt;br style=&quot;font-size: 12px;&quot;&gt;&lt;/td&gt;&lt;td style=&quot;font-size: 12px;&quot;&gt;&lt;br style=&quot;font-size: 12px;&quot;&gt;&lt;/td&gt;&lt;/tr&gt;&lt;tr style=&quot;font-size: 12px;&quot;&gt;&lt;td style=&quot;font-size: 12px;&quot;&gt;&lt;br style=&quot;font-size: 12px;&quot;&gt;&lt;/td&gt;&lt;td style=&quot;font-size: 12px;&quot;&gt;&lt;br style=&quot;font-size: 12px;&quot;&gt;&lt;/td&gt;&lt;/tr&gt;&lt;tr style=&quot;font-size: 12px;&quot;&gt;&lt;td style=&quot;font-size: 12px;&quot;&gt;&lt;br style=&quot;font-size: 12px;&quot;&gt;&lt;/td&gt;&lt;td style=&quot;font-size: 12px;&quot;&gt;&lt;br style=&quot;font-size: 12px;&quot;&gt;&lt;/td&gt;&lt;/tr&gt;&lt;tr style=&quot;font-size: 12px;&quot;&gt;&lt;td style=&quot;font-size: 12px;&quot;&gt;&lt;br style=&quot;font-size: 12px;&quot;&gt;&lt;/td&gt;&lt;td style=&quot;font-size: 12px;&quot;&gt;&lt;br style=&quot;font-size: 12px;&quot;&gt;&lt;/td&gt;&lt;/tr&gt;&lt;tr style=&quot;font-size: 12px;&quot;&gt;&lt;td style=&quot;font-size: 12px;&quot;&gt;&lt;br style=&quot;font-size: 12px;&quot;&gt;&lt;/td&gt;&lt;td style=&quot;font-size: 12px;&quot;&gt;&lt;br style=&quot;font-size: 12px;&quot;&gt;&lt;/td&gt;&lt;/tr&gt;&lt;tr style=&quot;font-size: 12px;&quot;&gt;&lt;td style=&quot;font-size: 12px;&quot;&gt;&lt;br style=&quot;font-size: 12px;&quot;&gt;&lt;/td&gt;&lt;td style=&quot;font-size: 12px;&quot;&gt;&lt;br style=&quot;font-size: 12px;&quot;&gt;&lt;/td&gt;&lt;/tr&gt;&lt;tr style=&quot;font-size: 12px;&quot;&gt;&lt;td style=&quot;font-size: 12px;&quot;&gt;&lt;br style=&quot;font-size: 12px;&quot;&gt;&lt;/td&gt;&lt;td style=&quot;font-size: 12px;&quot;&gt;&lt;br style=&quot;font-size: 12px;&quot;&gt;&lt;/td&gt;&lt;/tr&gt;&lt;/tbody&gt;&lt;/table&gt;" style="verticalAlign=top;align=left;overflow=fill;html=1;rounded=0;shadow=0;comic=0;labelBackgroundColor=none;strokeWidth=1;fontFamily=Verdana;fontSize=12;fillColor=#f9f7ed;strokeColor=#36393d;" parent="1" vertex="1">
          <mxGeometry x="-1500" y="1630" width="220" height="155" as="geometry" />
        </mxCell>
        <mxCell id="7crgOBvIinUt4j5GadzT-15" style="edgeStyle=orthogonalEdgeStyle;rounded=0;orthogonalLoop=1;jettySize=auto;html=1;exitX=0.25;exitY=1;exitDx=0;exitDy=0;entryX=0.75;entryY=0;entryDx=0;entryDy=0;fontColor=#000000;" parent="1" source="7crgOBvIinUt4j5GadzT-21" target="7crgOBvIinUt4j5GadzT-5" edge="1">
          <mxGeometry relative="1" as="geometry">
            <Array as="points">
              <mxPoint x="-1750" y="2060" />
              <mxPoint x="-1845" y="2060" />
            </Array>
          </mxGeometry>
        </mxCell>
        <mxCell id="7crgOBvIinUt4j5GadzT-16" style="edgeStyle=orthogonalEdgeStyle;rounded=0;orthogonalLoop=1;jettySize=auto;html=1;exitX=0.75;exitY=1;exitDx=0;exitDy=0;entryX=0.5;entryY=0;entryDx=0;entryDy=0;fontColor=#000000;" parent="1" source="7crgOBvIinUt4j5GadzT-21" target="7crgOBvIinUt4j5GadzT-7" edge="1">
          <mxGeometry relative="1" as="geometry" />
        </mxCell>
        <mxCell id="7crgOBvIinUt4j5GadzT-17" style="edgeStyle=orthogonalEdgeStyle;rounded=0;orthogonalLoop=1;jettySize=auto;html=1;exitX=1;exitY=0.75;exitDx=0;exitDy=0;entryX=0;entryY=0.25;entryDx=0;entryDy=0;fontColor=#000000;" parent="1" source="7crgOBvIinUt4j5GadzT-21" target="7crgOBvIinUt4j5GadzT-13" edge="1">
          <mxGeometry relative="1" as="geometry" />
        </mxCell>
        <mxCell id="7crgOBvIinUt4j5GadzT-18" style="edgeStyle=orthogonalEdgeStyle;rounded=0;orthogonalLoop=1;jettySize=auto;html=1;exitX=1;exitY=0.5;exitDx=0;exitDy=0;entryX=0;entryY=0.25;entryDx=0;entryDy=0;fontColor=#000000;" parent="1" source="7crgOBvIinUt4j5GadzT-21" target="7crgOBvIinUt4j5GadzT-22" edge="1">
          <mxGeometry relative="1" as="geometry" />
        </mxCell>
        <mxCell id="7crgOBvIinUt4j5GadzT-19" style="edgeStyle=orthogonalEdgeStyle;rounded=0;orthogonalLoop=1;jettySize=auto;html=1;exitX=0.5;exitY=0;exitDx=0;exitDy=0;entryX=0;entryY=0.25;entryDx=0;entryDy=0;fontColor=#000000;" parent="1" source="7crgOBvIinUt4j5GadzT-21" target="7crgOBvIinUt4j5GadzT-14" edge="1">
          <mxGeometry relative="1" as="geometry">
            <Array as="points">
              <mxPoint x="-1695" y="1680" />
              <mxPoint x="-1560" y="1680" />
              <mxPoint x="-1560" y="1669" />
            </Array>
          </mxGeometry>
        </mxCell>
        <mxCell id="7crgOBvIinUt4j5GadzT-20" style="edgeStyle=orthogonalEdgeStyle;rounded=0;orthogonalLoop=1;jettySize=auto;html=1;exitX=0.25;exitY=0;exitDx=0;exitDy=0;entryX=0.25;entryY=1;entryDx=0;entryDy=0;fontColor=#000000;" parent="1" source="7crgOBvIinUt4j5GadzT-21" target="7crgOBvIinUt4j5GadzT-6" edge="1">
          <mxGeometry relative="1" as="geometry" />
        </mxCell>
        <mxCell id="7crgOBvIinUt4j5GadzT-21" value="&lt;div style=&quot;box-sizing: border-box; width: 100%; background: rgb(228, 228, 228); padding: 2px; font-size: 12px;&quot;&gt;products&lt;/div&gt;&lt;table style=&quot;width: 100%; font-size: 12px;&quot; cellpadding=&quot;2&quot; cellspacing=&quot;0&quot;&gt;&lt;tbody style=&quot;font-size: 12px;&quot;&gt;&lt;tr style=&quot;font-size: 12px;&quot;&gt;&lt;td style=&quot;font-size: 12px;&quot;&gt;PK&lt;/td&gt;&lt;td style=&quot;font-size: 12px;&quot;&gt;id INT&lt;/td&gt;&lt;/tr&gt;&lt;tr style=&quot;font-size: 12px;&quot;&gt;&lt;td style=&quot;font-size: 12px;&quot;&gt;&lt;br style=&quot;font-size: 12px;&quot;&gt;&lt;/td&gt;&lt;td style=&quot;font-size: 12px;&quot;&gt;name VARCHAR(255)&lt;/td&gt;&lt;/tr&gt;&lt;tr style=&quot;font-size: 12px;&quot;&gt;&lt;td style=&quot;font-size: 12px;&quot;&gt;&lt;/td&gt;&lt;td style=&quot;font-size: 12px;&quot;&gt;thumb VARCHAR(255)&lt;/td&gt;&lt;/tr&gt;&lt;tr style=&quot;font-size: 12px;&quot;&gt;&lt;td style=&quot;font-size: 12px;&quot;&gt;&lt;br style=&quot;font-size: 12px;&quot;&gt;&lt;/td&gt;&lt;td style=&quot;font-size: 12px;&quot;&gt;description VARCHAR(255)&lt;/td&gt;&lt;/tr&gt;&lt;tr style=&quot;font-size: 12px;&quot;&gt;&lt;td style=&quot;font-size: 12px;&quot;&gt;&lt;br style=&quot;font-size: 12px;&quot;&gt;&lt;/td&gt;&lt;td style=&quot;font-size: 12px;&quot;&gt;slug VARCHAR(255)&lt;/td&gt;&lt;/tr&gt;&lt;tr style=&quot;font-size: 12px;&quot;&gt;&lt;td style=&quot;font-size: 12px;&quot;&gt;&lt;br style=&quot;font-size: 12px;&quot;&gt;&lt;/td&gt;&lt;td style=&quot;font-size: 12px;&quot;&gt;price DOUBLE&lt;/td&gt;&lt;/tr&gt;&lt;tr style=&quot;font-size: 12px;&quot;&gt;&lt;td style=&quot;font-size: 12px;&quot;&gt;FK&lt;/td&gt;&lt;td style=&quot;font-size: 12px;&quot;&gt;category_id INT&lt;/td&gt;&lt;/tr&gt;&lt;tr style=&quot;font-size: 12px;&quot;&gt;&lt;td style=&quot;font-size: 12px;&quot;&gt;FK&lt;/td&gt;&lt;td style=&quot;font-size: 12px;&quot;&gt;shop_id INT&lt;/td&gt;&lt;/tr&gt;&lt;tr style=&quot;font-size: 12px;&quot;&gt;&lt;td style=&quot;font-size: 12px;&quot;&gt;&lt;br style=&quot;font-size: 12px;&quot;&gt;&lt;/td&gt;&lt;td style=&quot;font-size: 12px;&quot;&gt;rating FLOAT&lt;/td&gt;&lt;/tr&gt;&lt;tr style=&quot;font-size: 12px;&quot;&gt;&lt;td style=&quot;font-size: 12px;&quot;&gt;&lt;br style=&quot;font-size: 12px;&quot;&gt;&lt;/td&gt;&lt;td style=&quot;font-size: 12px;&quot;&gt;variations VARCHAR(255)&lt;/td&gt;&lt;/tr&gt;&lt;tr style=&quot;font-size: 12px;&quot;&gt;&lt;td style=&quot;font-size: 12px;&quot;&gt;&lt;br style=&quot;font-size: 12px;&quot;&gt;&lt;/td&gt;&lt;td style=&quot;font-size: 12px;&quot;&gt;is_draft BOOLEAN&lt;/td&gt;&lt;/tr&gt;&lt;tr style=&quot;font-size: 12px;&quot;&gt;&lt;td style=&quot;font-size: 12px;&quot;&gt;&lt;br style=&quot;font-size: 12px;&quot;&gt;&lt;/td&gt;&lt;td style=&quot;font-size: 12px;&quot;&gt;is_published BOOLEAN&lt;/td&gt;&lt;/tr&gt;&lt;tr style=&quot;font-size: 12px;&quot;&gt;&lt;td style=&quot;font-size: 12px;&quot;&gt;&lt;br style=&quot;font-size: 12px;&quot;&gt;&lt;/td&gt;&lt;td style=&quot;font-size: 12px;&quot;&gt;&lt;br style=&quot;font-size: 12px;&quot;&gt;&lt;/td&gt;&lt;/tr&gt;&lt;tr style=&quot;font-size: 12px;&quot;&gt;&lt;td style=&quot;font-size: 12px;&quot;&gt;&lt;br style=&quot;font-size: 12px;&quot;&gt;&lt;/td&gt;&lt;td style=&quot;font-size: 12px;&quot;&gt;&lt;br style=&quot;font-size: 12px;&quot;&gt;&lt;/td&gt;&lt;/tr&gt;&lt;tr style=&quot;font-size: 12px;&quot;&gt;&lt;td style=&quot;font-size: 12px;&quot;&gt;&lt;br style=&quot;font-size: 12px;&quot;&gt;&lt;/td&gt;&lt;td style=&quot;font-size: 12px;&quot;&gt;&lt;br style=&quot;font-size: 12px;&quot;&gt;&lt;/td&gt;&lt;/tr&gt;&lt;tr style=&quot;font-size: 12px;&quot;&gt;&lt;td style=&quot;font-size: 12px;&quot;&gt;&lt;br style=&quot;font-size: 12px;&quot;&gt;&lt;/td&gt;&lt;td style=&quot;font-size: 12px;&quot;&gt;&lt;br style=&quot;font-size: 12px;&quot;&gt;&lt;/td&gt;&lt;/tr&gt;&lt;tr style=&quot;font-size: 12px;&quot;&gt;&lt;td style=&quot;font-size: 12px;&quot;&gt;&lt;br style=&quot;font-size: 12px;&quot;&gt;&lt;/td&gt;&lt;td style=&quot;font-size: 12px;&quot;&gt;&lt;br style=&quot;font-size: 12px;&quot;&gt;&lt;/td&gt;&lt;/tr&gt;&lt;/tbody&gt;&lt;/table&gt;" style="verticalAlign=top;align=left;overflow=fill;html=1;rounded=0;shadow=0;comic=0;labelBackgroundColor=none;strokeWidth=1;fontFamily=Verdana;fontSize=12;fillColor=#cdeb8b;strokeColor=#36393d;" parent="1" vertex="1">
          <mxGeometry x="-1805" y="1720" width="220" height="250" as="geometry" />
        </mxCell>
        <mxCell id="7crgOBvIinUt4j5GadzT-22" value="&lt;div style=&quot;box-sizing: border-box; width: 100%; background: rgb(228, 228, 228); padding: 2px; font-size: 12px;&quot;&gt;categories&lt;/div&gt;&lt;table style=&quot;width: 100%; font-size: 12px;&quot; cellpadding=&quot;2&quot; cellspacing=&quot;0&quot;&gt;&lt;tbody style=&quot;font-size: 12px;&quot;&gt;&lt;tr style=&quot;font-size: 12px;&quot;&gt;&lt;td style=&quot;font-size: 12px;&quot;&gt;PK&lt;/td&gt;&lt;td style=&quot;font-size: 12px;&quot;&gt;id INT&lt;/td&gt;&lt;/tr&gt;&lt;tr style=&quot;font-size: 12px;&quot;&gt;&lt;td style=&quot;font-size: 12px;&quot;&gt;&lt;br style=&quot;font-size: 12px;&quot;&gt;&lt;/td&gt;&lt;td style=&quot;font-size: 12px;&quot;&gt;name VARCHAR(255)&lt;/td&gt;&lt;/tr&gt;&lt;tr style=&quot;font-size: 12px;&quot;&gt;&lt;td style=&quot;font-size: 12px;&quot;&gt;&lt;/td&gt;&lt;td style=&quot;font-size: 12px;&quot;&gt;&lt;br style=&quot;font-size: 12px;&quot;&gt;&lt;/td&gt;&lt;/tr&gt;&lt;tr style=&quot;font-size: 12px;&quot;&gt;&lt;td style=&quot;font-size: 12px;&quot;&gt;&lt;br style=&quot;font-size: 12px;&quot;&gt;&lt;/td&gt;&lt;td style=&quot;font-size: 12px;&quot;&gt;&lt;br style=&quot;font-size: 12px;&quot;&gt;&lt;/td&gt;&lt;/tr&gt;&lt;tr style=&quot;font-size: 12px;&quot;&gt;&lt;td style=&quot;font-size: 12px;&quot;&gt;&lt;br style=&quot;font-size: 12px;&quot;&gt;&lt;/td&gt;&lt;td style=&quot;font-size: 12px;&quot;&gt;&lt;br style=&quot;font-size: 12px;&quot;&gt;&lt;/td&gt;&lt;/tr&gt;&lt;tr style=&quot;font-size: 12px;&quot;&gt;&lt;td style=&quot;font-size: 12px;&quot;&gt;&lt;br style=&quot;font-size: 12px;&quot;&gt;&lt;/td&gt;&lt;td style=&quot;font-size: 12px;&quot;&gt;&lt;br style=&quot;font-size: 12px;&quot;&gt;&lt;/td&gt;&lt;/tr&gt;&lt;tr style=&quot;font-size: 12px;&quot;&gt;&lt;td style=&quot;font-size: 12px;&quot;&gt;&lt;br style=&quot;font-size: 12px;&quot;&gt;&lt;/td&gt;&lt;td style=&quot;font-size: 12px;&quot;&gt;&lt;br style=&quot;font-size: 12px;&quot;&gt;&lt;/td&gt;&lt;/tr&gt;&lt;tr style=&quot;font-size: 12px;&quot;&gt;&lt;td style=&quot;font-size: 12px;&quot;&gt;&lt;br style=&quot;font-size: 12px;&quot;&gt;&lt;/td&gt;&lt;td style=&quot;font-size: 12px;&quot;&gt;&lt;br style=&quot;font-size: 12px;&quot;&gt;&lt;/td&gt;&lt;/tr&gt;&lt;tr style=&quot;font-size: 12px;&quot;&gt;&lt;td style=&quot;font-size: 12px;&quot;&gt;&lt;br style=&quot;font-size: 12px;&quot;&gt;&lt;/td&gt;&lt;td style=&quot;font-size: 12px;&quot;&gt;&lt;br style=&quot;font-size: 12px;&quot;&gt;&lt;/td&gt;&lt;/tr&gt;&lt;tr style=&quot;font-size: 12px;&quot;&gt;&lt;td style=&quot;font-size: 12px;&quot;&gt;&lt;br style=&quot;font-size: 12px;&quot;&gt;&lt;/td&gt;&lt;td style=&quot;font-size: 12px;&quot;&gt;&lt;br style=&quot;font-size: 12px;&quot;&gt;&lt;/td&gt;&lt;/tr&gt;&lt;tr style=&quot;font-size: 12px;&quot;&gt;&lt;td style=&quot;font-size: 12px;&quot;&gt;&lt;br style=&quot;font-size: 12px;&quot;&gt;&lt;/td&gt;&lt;td style=&quot;font-size: 12px;&quot;&gt;&lt;br style=&quot;font-size: 12px;&quot;&gt;&lt;/td&gt;&lt;/tr&gt;&lt;tr style=&quot;font-size: 12px;&quot;&gt;&lt;td style=&quot;font-size: 12px;&quot;&gt;&lt;br style=&quot;font-size: 12px;&quot;&gt;&lt;/td&gt;&lt;td style=&quot;font-size: 12px;&quot;&gt;&lt;br style=&quot;font-size: 12px;&quot;&gt;&lt;/td&gt;&lt;/tr&gt;&lt;tr style=&quot;font-size: 12px;&quot;&gt;&lt;td style=&quot;font-size: 12px;&quot;&gt;&lt;br style=&quot;font-size: 12px;&quot;&gt;&lt;/td&gt;&lt;td style=&quot;font-size: 12px;&quot;&gt;&lt;br style=&quot;font-size: 12px;&quot;&gt;&lt;/td&gt;&lt;/tr&gt;&lt;tr style=&quot;font-size: 12px;&quot;&gt;&lt;td style=&quot;font-size: 12px;&quot;&gt;&lt;br style=&quot;font-size: 12px;&quot;&gt;&lt;/td&gt;&lt;td style=&quot;font-size: 12px;&quot;&gt;&lt;br style=&quot;font-size: 12px;&quot;&gt;&lt;/td&gt;&lt;/tr&gt;&lt;tr style=&quot;font-size: 12px;&quot;&gt;&lt;td style=&quot;font-size: 12px;&quot;&gt;&lt;br style=&quot;font-size: 12px;&quot;&gt;&lt;/td&gt;&lt;td style=&quot;font-size: 12px;&quot;&gt;&lt;br style=&quot;font-size: 12px;&quot;&gt;&lt;/td&gt;&lt;/tr&gt;&lt;tr style=&quot;font-size: 12px;&quot;&gt;&lt;td style=&quot;font-size: 12px;&quot;&gt;&lt;br style=&quot;font-size: 12px;&quot;&gt;&lt;/td&gt;&lt;td style=&quot;font-size: 12px;&quot;&gt;&lt;br style=&quot;font-size: 12px;&quot;&gt;&lt;/td&gt;&lt;/tr&gt;&lt;tr style=&quot;font-size: 12px;&quot;&gt;&lt;td style=&quot;font-size: 12px;&quot;&gt;&lt;br style=&quot;font-size: 12px;&quot;&gt;&lt;/td&gt;&lt;td style=&quot;font-size: 12px;&quot;&gt;&lt;br style=&quot;font-size: 12px;&quot;&gt;&lt;/td&gt;&lt;/tr&gt;&lt;/tbody&gt;&lt;/table&gt;" style="verticalAlign=top;align=left;overflow=fill;html=1;rounded=0;shadow=0;comic=0;labelBackgroundColor=none;strokeWidth=1;fontFamily=Verdana;fontSize=12;fillColor=#ffcc99;strokeColor=#36393d;" parent="1" vertex="1">
          <mxGeometry x="-1480" y="1805" width="220" height="60" as="geometry" />
        </mxCell>
        <mxCell id="7crgOBvIinUt4j5GadzT-23" style="edgeStyle=orthogonalEdgeStyle;rounded=0;orthogonalLoop=1;jettySize=auto;html=1;exitX=0.25;exitY=1;exitDx=0;exitDy=0;entryX=0.25;entryY=0;entryDx=0;entryDy=0;fontColor=#000000;" parent="1" source="7crgOBvIinUt4j5GadzT-32" target="7crgOBvIinUt4j5GadzT-5" edge="1">
          <mxGeometry relative="1" as="geometry" />
        </mxCell>
        <mxCell id="7crgOBvIinUt4j5GadzT-24" style="edgeStyle=orthogonalEdgeStyle;rounded=0;orthogonalLoop=1;jettySize=auto;html=1;exitX=0.5;exitY=1;exitDx=0;exitDy=0;entryX=0.25;entryY=0;entryDx=0;entryDy=0;fontColor=#000000;" parent="1" source="7crgOBvIinUt4j5GadzT-32" target="7crgOBvIinUt4j5GadzT-7" edge="1">
          <mxGeometry relative="1" as="geometry">
            <Array as="points">
              <mxPoint x="-1990" y="2040" />
              <mxPoint x="-1702" y="2040" />
            </Array>
          </mxGeometry>
        </mxCell>
        <mxCell id="7crgOBvIinUt4j5GadzT-25" style="edgeStyle=orthogonalEdgeStyle;rounded=0;orthogonalLoop=1;jettySize=auto;html=1;exitX=0.75;exitY=1;exitDx=0;exitDy=0;entryX=0;entryY=0.25;entryDx=0;entryDy=0;fontColor=#000000;" parent="1" source="7crgOBvIinUt4j5GadzT-32" target="7crgOBvIinUt4j5GadzT-12" edge="1">
          <mxGeometry relative="1" as="geometry">
            <Array as="points">
              <mxPoint x="-1935" y="2020" />
              <mxPoint x="-1570" y="2020" />
              <mxPoint x="-1570" y="2085" />
            </Array>
          </mxGeometry>
        </mxCell>
        <mxCell id="7crgOBvIinUt4j5GadzT-26" style="edgeStyle=orthogonalEdgeStyle;rounded=0;orthogonalLoop=1;jettySize=auto;html=1;exitX=0.5;exitY=0;exitDx=0;exitDy=0;entryX=0.5;entryY=1;entryDx=0;entryDy=0;fontColor=#000000;" parent="1" source="7crgOBvIinUt4j5GadzT-32" target="7crgOBvIinUt4j5GadzT-3" edge="1">
          <mxGeometry relative="1" as="geometry" />
        </mxCell>
        <mxCell id="7crgOBvIinUt4j5GadzT-27" style="edgeStyle=orthogonalEdgeStyle;rounded=0;orthogonalLoop=1;jettySize=auto;html=1;exitX=0.25;exitY=0;exitDx=0;exitDy=0;entryX=1;entryY=0.75;entryDx=0;entryDy=0;fontColor=#000000;" parent="1" source="7crgOBvIinUt4j5GadzT-32" target="7crgOBvIinUt4j5GadzT-36" edge="1">
          <mxGeometry relative="1" as="geometry">
            <Array as="points">
              <mxPoint x="-2045" y="1840" />
              <mxPoint x="-2060" y="1840" />
              <mxPoint x="-2060" y="1570" />
            </Array>
          </mxGeometry>
        </mxCell>
        <mxCell id="7crgOBvIinUt4j5GadzT-28" style="edgeStyle=orthogonalEdgeStyle;rounded=0;orthogonalLoop=1;jettySize=auto;html=1;exitX=0;exitY=0;exitDx=0;exitDy=0;entryX=1;entryY=0.25;entryDx=0;entryDy=0;fontColor=#000000;" parent="1" source="7crgOBvIinUt4j5GadzT-32" target="7crgOBvIinUt4j5GadzT-10" edge="1">
          <mxGeometry relative="1" as="geometry" />
        </mxCell>
        <mxCell id="7crgOBvIinUt4j5GadzT-29" style="edgeStyle=orthogonalEdgeStyle;rounded=0;orthogonalLoop=1;jettySize=auto;html=1;exitX=0;exitY=0.75;exitDx=0;exitDy=0;entryX=0.5;entryY=0;entryDx=0;entryDy=0;" parent="1" source="7crgOBvIinUt4j5GadzT-32" target="7crgOBvIinUt4j5GadzT-88" edge="1">
          <mxGeometry relative="1" as="geometry" />
        </mxCell>
        <mxCell id="7crgOBvIinUt4j5GadzT-30" style="edgeStyle=orthogonalEdgeStyle;rounded=0;orthogonalLoop=1;jettySize=auto;html=1;exitX=0;exitY=0.25;exitDx=0;exitDy=0;entryX=1;entryY=0.5;entryDx=0;entryDy=0;" parent="1" source="7crgOBvIinUt4j5GadzT-32" target="7crgOBvIinUt4j5GadzT-89" edge="1">
          <mxGeometry relative="1" as="geometry">
            <Array as="points">
              <mxPoint x="-2140" y="1912" />
              <mxPoint x="-2140" y="1980" />
              <mxPoint x="-2225" y="1980" />
              <mxPoint x="-2225" y="2030" />
            </Array>
          </mxGeometry>
        </mxCell>
        <mxCell id="7crgOBvIinUt4j5GadzT-31" style="edgeStyle=orthogonalEdgeStyle;rounded=0;orthogonalLoop=1;jettySize=auto;html=1;exitX=0;exitY=1;exitDx=0;exitDy=0;entryX=0.5;entryY=0;entryDx=0;entryDy=0;" parent="1" source="7crgOBvIinUt4j5GadzT-32" target="7crgOBvIinUt4j5GadzT-1" edge="1">
          <mxGeometry relative="1" as="geometry" />
        </mxCell>
        <mxCell id="7crgOBvIinUt4j5GadzT-32" value="&lt;div style=&quot;box-sizing: border-box; width: 100%; background: rgb(228, 228, 228); padding: 2px; font-size: 12px;&quot;&gt;users&lt;/div&gt;&lt;table style=&quot;width: 100%; font-size: 12px;&quot; cellpadding=&quot;2&quot; cellspacing=&quot;0&quot;&gt;&lt;tbody style=&quot;font-size: 12px;&quot;&gt;&lt;tr style=&quot;font-size: 12px;&quot;&gt;&lt;td style=&quot;font-size: 12px;&quot;&gt;PK&lt;/td&gt;&lt;td style=&quot;font-size: 12px;&quot;&gt;id INT&lt;/td&gt;&lt;/tr&gt;&lt;tr style=&quot;font-size: 12px;&quot;&gt;&lt;td style=&quot;font-size: 12px;&quot;&gt;&lt;br style=&quot;font-size: 12px;&quot;&gt;&lt;/td&gt;&lt;td style=&quot;font-size: 12px;&quot;&gt;name INT&lt;/td&gt;&lt;/tr&gt;&lt;tr style=&quot;font-size: 12px;&quot;&gt;&lt;td style=&quot;font-size: 12px;&quot;&gt;&lt;/td&gt;&lt;td style=&quot;font-size: 12px;&quot;&gt;email VARCHAR(255)&lt;/td&gt;&lt;/tr&gt;&lt;tr style=&quot;font-size: 12px;&quot;&gt;&lt;td style=&quot;font-size: 12px;&quot;&gt;&lt;br style=&quot;font-size: 12px;&quot;&gt;&lt;/td&gt;&lt;td style=&quot;font-size: 12px;&quot;&gt;password VARCHAR(255)&lt;/td&gt;&lt;/tr&gt;&lt;tr style=&quot;font-size: 12px;&quot;&gt;&lt;td style=&quot;font-size: 12px;&quot;&gt;&lt;br style=&quot;font-size: 12px;&quot;&gt;&lt;/td&gt;&lt;td style=&quot;font-size: 12px;&quot;&gt;status BOOLEAN&lt;/td&gt;&lt;/tr&gt;&lt;tr style=&quot;font-size: 12px;&quot;&gt;&lt;td style=&quot;font-size: 12px;&quot;&gt;&lt;br style=&quot;font-size: 12px;&quot;&gt;&lt;/td&gt;&lt;td style=&quot;font-size: 12px;&quot;&gt;verify BOOLEAN&lt;br&gt;&lt;/td&gt;&lt;/tr&gt;&lt;tr style=&quot;font-size: 12px;&quot;&gt;&lt;td style=&quot;font-size: 12px;&quot;&gt;&lt;br style=&quot;font-size: 12px;&quot;&gt;&lt;/td&gt;&lt;td style=&quot;font-size: 12px;&quot;&gt;isUser BOOLEAN&lt;br style=&quot;font-size: 12px;&quot;&gt;&lt;/td&gt;&lt;/tr&gt;&lt;tr style=&quot;font-size: 12px;&quot;&gt;&lt;td style=&quot;font-size: 12px;&quot;&gt;&lt;br style=&quot;font-size: 12px;&quot;&gt;&lt;/td&gt;&lt;td style=&quot;font-size: 12px;&quot;&gt;isShop BOOLEAN&lt;br style=&quot;font-size: 12px;&quot;&gt;&lt;/td&gt;&lt;/tr&gt;&lt;tr style=&quot;font-size: 12px;&quot;&gt;&lt;td style=&quot;font-size: 12px;&quot;&gt;&lt;br style=&quot;font-size: 12px;&quot;&gt;&lt;/td&gt;&lt;td style=&quot;font-size: 12px;&quot;&gt;isAdmin BOOLEAN&lt;/td&gt;&lt;/tr&gt;&lt;tr style=&quot;font-size: 12px;&quot;&gt;&lt;td style=&quot;font-size: 12px;&quot;&gt;&lt;br style=&quot;font-size: 12px;&quot;&gt;&lt;/td&gt;&lt;td style=&quot;font-size: 12px;&quot;&gt;&lt;br style=&quot;font-size: 12px;&quot;&gt;&lt;/td&gt;&lt;/tr&gt;&lt;tr style=&quot;font-size: 12px;&quot;&gt;&lt;td style=&quot;font-size: 12px;&quot;&gt;&lt;br style=&quot;font-size: 12px;&quot;&gt;&lt;/td&gt;&lt;td style=&quot;font-size: 12px;&quot;&gt;&lt;br style=&quot;font-size: 12px;&quot;&gt;&lt;/td&gt;&lt;/tr&gt;&lt;tr style=&quot;font-size: 12px;&quot;&gt;&lt;td style=&quot;font-size: 12px;&quot;&gt;&lt;br style=&quot;font-size: 12px;&quot;&gt;&lt;/td&gt;&lt;td style=&quot;font-size: 12px;&quot;&gt;&lt;br style=&quot;font-size: 12px;&quot;&gt;&lt;/td&gt;&lt;/tr&gt;&lt;tr style=&quot;font-size: 12px;&quot;&gt;&lt;td style=&quot;font-size: 12px;&quot;&gt;&lt;br style=&quot;font-size: 12px;&quot;&gt;&lt;/td&gt;&lt;td style=&quot;font-size: 12px;&quot;&gt;&lt;br style=&quot;font-size: 12px;&quot;&gt;&lt;/td&gt;&lt;/tr&gt;&lt;tr style=&quot;font-size: 12px;&quot;&gt;&lt;td style=&quot;font-size: 12px;&quot;&gt;&lt;br style=&quot;font-size: 12px;&quot;&gt;&lt;/td&gt;&lt;td style=&quot;font-size: 12px;&quot;&gt;&lt;br style=&quot;font-size: 12px;&quot;&gt;&lt;/td&gt;&lt;/tr&gt;&lt;tr style=&quot;font-size: 12px;&quot;&gt;&lt;td style=&quot;font-size: 12px;&quot;&gt;&lt;br style=&quot;font-size: 12px;&quot;&gt;&lt;/td&gt;&lt;td style=&quot;font-size: 12px;&quot;&gt;&lt;br style=&quot;font-size: 12px;&quot;&gt;&lt;/td&gt;&lt;/tr&gt;&lt;tr style=&quot;font-size: 12px;&quot;&gt;&lt;td style=&quot;font-size: 12px;&quot;&gt;&lt;br style=&quot;font-size: 12px;&quot;&gt;&lt;/td&gt;&lt;td style=&quot;font-size: 12px;&quot;&gt;&lt;br style=&quot;font-size: 12px;&quot;&gt;&lt;/td&gt;&lt;/tr&gt;&lt;tr style=&quot;font-size: 12px;&quot;&gt;&lt;td style=&quot;font-size: 12px;&quot;&gt;&lt;br style=&quot;font-size: 12px;&quot;&gt;&lt;/td&gt;&lt;td style=&quot;font-size: 12px;&quot;&gt;&lt;br style=&quot;font-size: 12px;&quot;&gt;&lt;/td&gt;&lt;/tr&gt;&lt;/tbody&gt;&lt;/table&gt;" style="verticalAlign=top;align=left;overflow=fill;html=1;rounded=0;shadow=0;comic=0;labelBackgroundColor=none;strokeWidth=1;fontFamily=Verdana;fontSize=12;fillColor=#f9f7ed;strokeColor=#36393d;" parent="1" vertex="1">
          <mxGeometry x="-2090" y="1876.25" width="220" height="197.5" as="geometry" />
        </mxCell>
        <mxCell id="7crgOBvIinUt4j5GadzT-33" style="edgeStyle=orthogonalEdgeStyle;rounded=0;orthogonalLoop=1;jettySize=auto;html=1;exitX=1;exitY=0.25;exitDx=0;exitDy=0;entryX=0;entryY=0.25;entryDx=0;entryDy=0;fontColor=#000000;" parent="1" source="7crgOBvIinUt4j5GadzT-35" target="7crgOBvIinUt4j5GadzT-6" edge="1">
          <mxGeometry relative="1" as="geometry" />
        </mxCell>
        <mxCell id="7crgOBvIinUt4j5GadzT-34" style="edgeStyle=orthogonalEdgeStyle;rounded=0;orthogonalLoop=1;jettySize=auto;html=1;exitX=0;exitY=0.5;exitDx=0;exitDy=0;entryX=1;entryY=0.25;entryDx=0;entryDy=0;fontColor=#000000;" parent="1" source="7crgOBvIinUt4j5GadzT-35" target="7crgOBvIinUt4j5GadzT-36" edge="1">
          <mxGeometry relative="1" as="geometry" />
        </mxCell>
        <mxCell id="7crgOBvIinUt4j5GadzT-35" value="&lt;div style=&quot;box-sizing: border-box; width: 100%; background: rgb(228, 228, 228); padding: 2px; font-size: 12px;&quot;&gt;discounts&lt;/div&gt;&lt;table style=&quot;width: 100%; font-size: 12px;&quot; cellpadding=&quot;2&quot; cellspacing=&quot;0&quot;&gt;&lt;tbody style=&quot;font-size: 12px;&quot;&gt;&lt;tr style=&quot;font-size: 12px;&quot;&gt;&lt;td style=&quot;font-size: 12px;&quot;&gt;PK&lt;/td&gt;&lt;td style=&quot;font-size: 12px;&quot;&gt;id INT&lt;/td&gt;&lt;/tr&gt;&lt;tr style=&quot;font-size: 12px;&quot;&gt;&lt;td style=&quot;font-size: 12px;&quot;&gt;&lt;br style=&quot;font-size: 12px;&quot;&gt;&lt;/td&gt;&lt;td style=&quot;font-size: 12px;&quot;&gt;name VARCHAR(255)&lt;/td&gt;&lt;/tr&gt;&lt;tr style=&quot;font-size: 12px;&quot;&gt;&lt;td style=&quot;font-size: 12px;&quot;&gt;&lt;/td&gt;&lt;td style=&quot;font-size: 12px;&quot;&gt;description VARCHAR(255)&lt;/td&gt;&lt;/tr&gt;&lt;tr style=&quot;font-size: 12px;&quot;&gt;&lt;td style=&quot;font-size: 12px;&quot;&gt;&lt;br style=&quot;font-size: 12px;&quot;&gt;&lt;/td&gt;&lt;td style=&quot;font-size: 12px;&quot;&gt;type ENUM&lt;/td&gt;&lt;/tr&gt;&lt;tr style=&quot;font-size: 12px;&quot;&gt;&lt;td style=&quot;font-size: 12px;&quot;&gt;&lt;br style=&quot;font-size: 12px;&quot;&gt;&lt;/td&gt;&lt;td style=&quot;font-size: 12px;&quot;&gt;value DOUBLE&lt;/td&gt;&lt;/tr&gt;&lt;tr style=&quot;font-size: 12px;&quot;&gt;&lt;td style=&quot;font-size: 12px;&quot;&gt;&lt;br style=&quot;font-size: 12px;&quot;&gt;&lt;/td&gt;&lt;td style=&quot;font-size: 12px;&quot;&gt;code VARCHAR(255)&lt;/td&gt;&lt;/tr&gt;&lt;tr style=&quot;font-size: 12px;&quot;&gt;&lt;td style=&quot;font-size: 12px;&quot;&gt;&lt;br style=&quot;font-size: 12px;&quot;&gt;&lt;/td&gt;&lt;td style=&quot;font-size: 12px;&quot;&gt;start_date DATE&lt;/td&gt;&lt;/tr&gt;&lt;tr style=&quot;font-size: 12px;&quot;&gt;&lt;td style=&quot;font-size: 12px;&quot;&gt;&lt;br style=&quot;font-size: 12px;&quot;&gt;&lt;/td&gt;&lt;td style=&quot;font-size: 12px;&quot;&gt;end_date DATE&lt;/td&gt;&lt;/tr&gt;&lt;tr style=&quot;font-size: 12px;&quot;&gt;&lt;td style=&quot;font-size: 12px;&quot;&gt;&lt;br style=&quot;font-size: 12px;&quot;&gt;&lt;/td&gt;&lt;td style=&quot;font-size: 12px;&quot;&gt;max_uses INT&lt;/td&gt;&lt;/tr&gt;&lt;tr style=&quot;font-size: 12px;&quot;&gt;&lt;td style=&quot;font-size: 12px;&quot;&gt;&lt;br style=&quot;font-size: 12px;&quot;&gt;&lt;/td&gt;&lt;td style=&quot;font-size: 12px;&quot;&gt;max_value DOUBLE&lt;/td&gt;&lt;/tr&gt;&lt;tr style=&quot;font-size: 12px;&quot;&gt;&lt;td style=&quot;font-size: 12px;&quot;&gt;&lt;br style=&quot;font-size: 12px;&quot;&gt;&lt;/td&gt;&lt;td style=&quot;font-size: 12px;&quot;&gt;uses_count INT&lt;/td&gt;&lt;/tr&gt;&lt;tr style=&quot;font-size: 12px;&quot;&gt;&lt;td style=&quot;font-size: 12px;&quot;&gt;&lt;br style=&quot;font-size: 12px;&quot;&gt;&lt;/td&gt;&lt;td style=&quot;font-size: 12px;&quot;&gt;applies_to ENUM&lt;/td&gt;&lt;/tr&gt;&lt;tr style=&quot;font-size: 12px;&quot;&gt;&lt;td style=&quot;font-size: 12px;&quot;&gt;&lt;br style=&quot;font-size: 12px;&quot;&gt;&lt;/td&gt;&lt;td style=&quot;font-size: 12px;&quot;&gt;is_active BOOLEAN&lt;/td&gt;&lt;/tr&gt;&lt;tr style=&quot;font-size: 12px;&quot;&gt;&lt;td style=&quot;font-size: 12px;&quot;&gt;&lt;br style=&quot;font-size: 12px;&quot;&gt;&lt;/td&gt;&lt;td style=&quot;font-size: 12px;&quot;&gt;min_order_value DOUBLE&lt;/td&gt;&lt;/tr&gt;&lt;tr style=&quot;font-size: 12px;&quot;&gt;&lt;td style=&quot;font-size: 12px;&quot;&gt;&lt;br style=&quot;font-size: 12px;&quot;&gt;&lt;/td&gt;&lt;td style=&quot;font-size: 12px;&quot;&gt;shop_id INT&lt;/td&gt;&lt;/tr&gt;&lt;tr style=&quot;font-size: 12px;&quot;&gt;&lt;td style=&quot;font-size: 12px;&quot;&gt;&lt;br style=&quot;font-size: 12px;&quot;&gt;&lt;/td&gt;&lt;td style=&quot;font-size: 12px;&quot;&gt;&lt;br style=&quot;font-size: 12px;&quot;&gt;&lt;/td&gt;&lt;/tr&gt;&lt;tr style=&quot;font-size: 12px;&quot;&gt;&lt;td style=&quot;font-size: 12px;&quot;&gt;&lt;br style=&quot;font-size: 12px;&quot;&gt;&lt;/td&gt;&lt;td style=&quot;font-size: 12px;&quot;&gt;&lt;br style=&quot;font-size: 12px;&quot;&gt;&lt;/td&gt;&lt;/tr&gt;&lt;/tbody&gt;&lt;/table&gt;" style="verticalAlign=top;align=left;overflow=fill;html=1;rounded=0;shadow=0;comic=0;labelBackgroundColor=none;strokeWidth=1;fontFamily=Verdana;fontSize=12;fillColor=#ffcccc;strokeColor=#36393d;" parent="1" vertex="1">
          <mxGeometry x="-2060" y="1240" width="210" height="305" as="geometry" />
        </mxCell>
        <mxCell id="7crgOBvIinUt4j5GadzT-36" value="&lt;div style=&quot;box-sizing: border-box; width: 100%; background: rgb(228, 228, 228); padding: 2px; font-size: 12px;&quot;&gt;discounts_user_useds&lt;/div&gt;&lt;table style=&quot;width: 100%; font-size: 12px;&quot; cellpadding=&quot;2&quot; cellspacing=&quot;0&quot;&gt;&lt;tbody style=&quot;font-size: 12px;&quot;&gt;&lt;tr style=&quot;font-size: 12px;&quot;&gt;&lt;td style=&quot;font-size: 12px;&quot;&gt;PK&lt;/td&gt;&lt;td style=&quot;font-size: 12px;&quot;&gt;id INT&lt;/td&gt;&lt;/tr&gt;&lt;tr style=&quot;font-size: 12px;&quot;&gt;&lt;td style=&quot;font-size: 12px;&quot;&gt;FK&lt;/td&gt;&lt;td style=&quot;font-size: 12px;&quot;&gt;discount_id INT&lt;/td&gt;&lt;/tr&gt;&lt;tr style=&quot;font-size: 12px;&quot;&gt;&lt;td style=&quot;font-size: 12px;&quot;&gt;FK&lt;/td&gt;&lt;td style=&quot;font-size: 12px;&quot;&gt;user_id INT&lt;/td&gt;&lt;/tr&gt;&lt;tr style=&quot;font-size: 12px;&quot;&gt;&lt;td style=&quot;font-size: 12px;&quot;&gt;&lt;br style=&quot;font-size: 12px;&quot;&gt;&lt;/td&gt;&lt;td style=&quot;font-size: 12px;&quot;&gt;&lt;br style=&quot;font-size: 12px;&quot;&gt;&lt;/td&gt;&lt;/tr&gt;&lt;tr style=&quot;font-size: 12px;&quot;&gt;&lt;td style=&quot;font-size: 12px;&quot;&gt;&lt;br style=&quot;font-size: 12px;&quot;&gt;&lt;/td&gt;&lt;td style=&quot;font-size: 12px;&quot;&gt;&lt;br style=&quot;font-size: 12px;&quot;&gt;&lt;/td&gt;&lt;/tr&gt;&lt;tr style=&quot;font-size: 12px;&quot;&gt;&lt;td style=&quot;font-size: 12px;&quot;&gt;&lt;br style=&quot;font-size: 12px;&quot;&gt;&lt;/td&gt;&lt;td style=&quot;font-size: 12px;&quot;&gt;&lt;br style=&quot;font-size: 12px;&quot;&gt;&lt;/td&gt;&lt;/tr&gt;&lt;tr style=&quot;font-size: 12px;&quot;&gt;&lt;td style=&quot;font-size: 12px;&quot;&gt;&lt;br style=&quot;font-size: 12px;&quot;&gt;&lt;/td&gt;&lt;td style=&quot;font-size: 12px;&quot;&gt;&lt;br style=&quot;font-size: 12px;&quot;&gt;&lt;/td&gt;&lt;/tr&gt;&lt;tr style=&quot;font-size: 12px;&quot;&gt;&lt;td style=&quot;font-size: 12px;&quot;&gt;&lt;br style=&quot;font-size: 12px;&quot;&gt;&lt;/td&gt;&lt;td style=&quot;font-size: 12px;&quot;&gt;&lt;br style=&quot;font-size: 12px;&quot;&gt;&lt;/td&gt;&lt;/tr&gt;&lt;tr style=&quot;font-size: 12px;&quot;&gt;&lt;td style=&quot;font-size: 12px;&quot;&gt;&lt;br style=&quot;font-size: 12px;&quot;&gt;&lt;/td&gt;&lt;td style=&quot;font-size: 12px;&quot;&gt;&lt;br style=&quot;font-size: 12px;&quot;&gt;&lt;/td&gt;&lt;/tr&gt;&lt;tr style=&quot;font-size: 12px;&quot;&gt;&lt;td style=&quot;font-size: 12px;&quot;&gt;&lt;br style=&quot;font-size: 12px;&quot;&gt;&lt;/td&gt;&lt;td style=&quot;font-size: 12px;&quot;&gt;&lt;br style=&quot;font-size: 12px;&quot;&gt;&lt;/td&gt;&lt;/tr&gt;&lt;tr style=&quot;font-size: 12px;&quot;&gt;&lt;td style=&quot;font-size: 12px;&quot;&gt;&lt;br style=&quot;font-size: 12px;&quot;&gt;&lt;/td&gt;&lt;td style=&quot;font-size: 12px;&quot;&gt;&lt;br style=&quot;font-size: 12px;&quot;&gt;&lt;/td&gt;&lt;/tr&gt;&lt;tr style=&quot;font-size: 12px;&quot;&gt;&lt;td style=&quot;font-size: 12px;&quot;&gt;&lt;br style=&quot;font-size: 12px;&quot;&gt;&lt;/td&gt;&lt;td style=&quot;font-size: 12px;&quot;&gt;&lt;br style=&quot;font-size: 12px;&quot;&gt;&lt;/td&gt;&lt;/tr&gt;&lt;tr style=&quot;font-size: 12px;&quot;&gt;&lt;td style=&quot;font-size: 12px;&quot;&gt;&lt;br style=&quot;font-size: 12px;&quot;&gt;&lt;/td&gt;&lt;td style=&quot;font-size: 12px;&quot;&gt;&lt;br style=&quot;font-size: 12px;&quot;&gt;&lt;/td&gt;&lt;/tr&gt;&lt;tr style=&quot;font-size: 12px;&quot;&gt;&lt;td style=&quot;font-size: 12px;&quot;&gt;&lt;br style=&quot;font-size: 12px;&quot;&gt;&lt;/td&gt;&lt;td style=&quot;font-size: 12px;&quot;&gt;&lt;br style=&quot;font-size: 12px;&quot;&gt;&lt;/td&gt;&lt;/tr&gt;&lt;tr style=&quot;font-size: 12px;&quot;&gt;&lt;td style=&quot;font-size: 12px;&quot;&gt;&lt;br style=&quot;font-size: 12px;&quot;&gt;&lt;/td&gt;&lt;td style=&quot;font-size: 12px;&quot;&gt;&lt;br style=&quot;font-size: 12px;&quot;&gt;&lt;/td&gt;&lt;/tr&gt;&lt;tr style=&quot;font-size: 12px;&quot;&gt;&lt;td style=&quot;font-size: 12px;&quot;&gt;&lt;br style=&quot;font-size: 12px;&quot;&gt;&lt;/td&gt;&lt;td style=&quot;font-size: 12px;&quot;&gt;&lt;br style=&quot;font-size: 12px;&quot;&gt;&lt;/td&gt;&lt;/tr&gt;&lt;tr style=&quot;font-size: 12px;&quot;&gt;&lt;td style=&quot;font-size: 12px;&quot;&gt;&lt;br style=&quot;font-size: 12px;&quot;&gt;&lt;/td&gt;&lt;td style=&quot;font-size: 12px;&quot;&gt;&lt;br style=&quot;font-size: 12px;&quot;&gt;&lt;/td&gt;&lt;/tr&gt;&lt;/tbody&gt;&lt;/table&gt;" style="verticalAlign=top;align=left;overflow=fill;html=1;rounded=0;shadow=0;comic=0;labelBackgroundColor=none;strokeWidth=1;fontFamily=Verdana;fontSize=12;fillColor=#ffff88;strokeColor=#36393d;" parent="1" vertex="1">
          <mxGeometry x="-2310" y="1520" width="210" height="80" as="geometry" />
        </mxCell>
        <mxCell id="7crgOBvIinUt4j5GadzT-37" value="1" style="text;html=1;strokeColor=none;fillColor=none;align=center;verticalAlign=middle;whiteSpace=wrap;rounded=0;fontColor=#000000;" parent="1" vertex="1">
          <mxGeometry x="-2150" y="2015" width="30" height="30" as="geometry" />
        </mxCell>
        <mxCell id="7crgOBvIinUt4j5GadzT-38" value="n" style="text;html=1;strokeColor=none;fillColor=none;align=center;verticalAlign=middle;whiteSpace=wrap;rounded=0;fontColor=#000000;" parent="1" vertex="1">
          <mxGeometry x="-2230" y="2205" width="30" height="30" as="geometry" />
        </mxCell>
        <mxCell id="7crgOBvIinUt4j5GadzT-39" value="1" style="text;html=1;strokeColor=none;fillColor=none;align=center;verticalAlign=middle;whiteSpace=wrap;rounded=0;fontColor=#000000;" parent="1" vertex="1">
          <mxGeometry x="-2070" y="2075" width="30" height="30" as="geometry" />
        </mxCell>
        <mxCell id="7crgOBvIinUt4j5GadzT-40" value="n" style="text;html=1;strokeColor=none;fillColor=none;align=center;verticalAlign=middle;whiteSpace=wrap;rounded=0;fontColor=#000000;" parent="1" vertex="1">
          <mxGeometry x="-1960" y="2080" width="30" height="30" as="geometry" />
        </mxCell>
        <mxCell id="7crgOBvIinUt4j5GadzT-41" value="n" style="text;html=1;strokeColor=none;fillColor=none;align=center;verticalAlign=middle;whiteSpace=wrap;rounded=0;fontColor=#000000;" parent="1" vertex="1">
          <mxGeometry x="-1850" y="2080" width="30" height="30" as="geometry" />
        </mxCell>
        <mxCell id="7crgOBvIinUt4j5GadzT-42" value="1" style="text;html=1;strokeColor=none;fillColor=none;align=center;verticalAlign=middle;whiteSpace=wrap;rounded=0;fontColor=#000000;" parent="1" vertex="1">
          <mxGeometry x="-1755" y="1970" width="30" height="30" as="geometry" />
        </mxCell>
        <mxCell id="7crgOBvIinUt4j5GadzT-43" value="1" style="text;html=1;strokeColor=none;fillColor=none;align=center;verticalAlign=middle;whiteSpace=wrap;rounded=0;fontColor=#000000;" parent="1" vertex="1">
          <mxGeometry x="-1640" y="1970" width="30" height="30" as="geometry" />
        </mxCell>
        <mxCell id="7crgOBvIinUt4j5GadzT-44" value="n" style="text;html=1;strokeColor=none;fillColor=none;align=center;verticalAlign=middle;whiteSpace=wrap;rounded=0;fontColor=#000000;" parent="1" vertex="1">
          <mxGeometry x="-1650" y="2080" width="30" height="30" as="geometry" />
        </mxCell>
        <mxCell id="7crgOBvIinUt4j5GadzT-45" value="n" style="text;html=1;strokeColor=none;fillColor=none;align=center;verticalAlign=middle;whiteSpace=wrap;rounded=0;fontColor=#000000;" parent="1" vertex="1">
          <mxGeometry x="-1730" y="2085" width="30" height="30" as="geometry" />
        </mxCell>
        <mxCell id="7crgOBvIinUt4j5GadzT-46" value="1" style="text;html=1;strokeColor=none;fillColor=none;align=center;verticalAlign=middle;whiteSpace=wrap;rounded=0;fontColor=#000000;" parent="1" vertex="1">
          <mxGeometry x="-1880" y="2045" width="30" height="30" as="geometry" />
        </mxCell>
        <mxCell id="7crgOBvIinUt4j5GadzT-47" value="1" style="text;html=1;strokeColor=none;fillColor=none;align=center;verticalAlign=middle;whiteSpace=wrap;rounded=0;fontColor=#000000;" parent="1" vertex="1">
          <mxGeometry x="-1880" y="1990" width="30" height="30" as="geometry" />
        </mxCell>
        <mxCell id="7crgOBvIinUt4j5GadzT-48" value="n" style="text;html=1;strokeColor=none;fillColor=none;align=center;verticalAlign=middle;whiteSpace=wrap;rounded=0;fontColor=#000000;" parent="1" vertex="1">
          <mxGeometry x="-1530" y="2080" width="30" height="30" as="geometry" />
        </mxCell>
        <mxCell id="7crgOBvIinUt4j5GadzT-49" value="n" style="text;html=1;strokeColor=none;fillColor=none;align=center;verticalAlign=middle;whiteSpace=wrap;rounded=0;fontColor=#000000;" parent="1" vertex="1">
          <mxGeometry x="-1570" y="1940" width="30" height="30" as="geometry" />
        </mxCell>
        <mxCell id="7crgOBvIinUt4j5GadzT-50" value="1" style="text;html=1;strokeColor=none;fillColor=none;align=center;verticalAlign=middle;whiteSpace=wrap;rounded=0;fontColor=#000000;" parent="1" vertex="1">
          <mxGeometry x="-1420" y="2015" width="30" height="30" as="geometry" />
        </mxCell>
        <mxCell id="7crgOBvIinUt4j5GadzT-51" value="n" style="text;html=1;strokeColor=none;fillColor=none;align=center;verticalAlign=middle;whiteSpace=wrap;rounded=0;fontColor=#000000;" parent="1" vertex="1">
          <mxGeometry x="-1550" y="1900" width="30" height="30" as="geometry" />
        </mxCell>
        <mxCell id="7crgOBvIinUt4j5GadzT-52" value="1" style="text;html=1;strokeColor=none;fillColor=none;align=center;verticalAlign=middle;whiteSpace=wrap;rounded=0;fontColor=#000000;" parent="1" vertex="1">
          <mxGeometry x="-1590" y="1880" width="30" height="30" as="geometry" />
        </mxCell>
        <mxCell id="7crgOBvIinUt4j5GadzT-53" value="1" style="text;html=1;strokeColor=none;fillColor=none;align=center;verticalAlign=middle;whiteSpace=wrap;rounded=0;fontColor=#000000;" parent="1" vertex="1">
          <mxGeometry x="-1590" y="1810" width="30" height="30" as="geometry" />
        </mxCell>
        <mxCell id="7crgOBvIinUt4j5GadzT-54" value="n" style="text;html=1;strokeColor=none;fillColor=none;align=center;verticalAlign=middle;whiteSpace=wrap;rounded=0;fontColor=#000000;" parent="1" vertex="1">
          <mxGeometry x="-1510" y="1820" width="30" height="30" as="geometry" />
        </mxCell>
        <mxCell id="7crgOBvIinUt4j5GadzT-55" value="1" style="text;html=1;strokeColor=none;fillColor=none;align=center;verticalAlign=middle;whiteSpace=wrap;rounded=0;fontColor=#000000;" parent="1" vertex="1">
          <mxGeometry x="-1530" y="1667.5" width="30" height="30" as="geometry" />
        </mxCell>
        <mxCell id="7crgOBvIinUt4j5GadzT-56" value="1" style="text;html=1;strokeColor=none;fillColor=none;align=center;verticalAlign=middle;whiteSpace=wrap;rounded=0;fontColor=#000000;" parent="1" vertex="1">
          <mxGeometry x="-2010" y="1835" width="30" height="30" as="geometry" />
        </mxCell>
        <mxCell id="7crgOBvIinUt4j5GadzT-57" value="1" style="text;html=1;strokeColor=none;fillColor=none;align=center;verticalAlign=middle;whiteSpace=wrap;rounded=0;fontColor=#000000;" parent="1" vertex="1">
          <mxGeometry x="-1960" y="1820" width="30" height="30" as="geometry" />
        </mxCell>
        <mxCell id="7crgOBvIinUt4j5GadzT-58" value="1" style="text;html=1;strokeColor=none;fillColor=none;align=center;verticalAlign=middle;whiteSpace=wrap;rounded=0;fontColor=#000000;" parent="1" vertex="1">
          <mxGeometry x="-1980" y="1720" width="30" height="30" as="geometry" />
        </mxCell>
        <mxCell id="7crgOBvIinUt4j5GadzT-59" value="n" style="text;html=1;strokeColor=none;fillColor=none;align=center;verticalAlign=middle;whiteSpace=wrap;rounded=0;fontColor=#000000;" parent="1" vertex="1">
          <mxGeometry x="-1960" y="1692.5" width="30" height="30" as="geometry" />
        </mxCell>
        <mxCell id="7crgOBvIinUt4j5GadzT-60" style="edgeStyle=orthogonalEdgeStyle;rounded=0;orthogonalLoop=1;jettySize=auto;html=1;exitX=0;exitY=0.25;exitDx=0;exitDy=0;entryX=0.997;entryY=0.343;entryDx=0;entryDy=0;entryPerimeter=0;fontColor=#000000;" parent="1" source="7crgOBvIinUt4j5GadzT-21" target="7crgOBvIinUt4j5GadzT-4" edge="1">
          <mxGeometry relative="1" as="geometry" />
        </mxCell>
        <mxCell id="7crgOBvIinUt4j5GadzT-61" value="n" style="text;html=1;strokeColor=none;fillColor=none;align=center;verticalAlign=middle;whiteSpace=wrap;rounded=0;fontColor=#000000;" parent="1" vertex="1">
          <mxGeometry x="-1870" y="1637.5" width="30" height="30" as="geometry" />
        </mxCell>
        <mxCell id="7crgOBvIinUt4j5GadzT-62" value="1" style="text;html=1;strokeColor=none;fillColor=none;align=center;verticalAlign=middle;whiteSpace=wrap;rounded=0;fontColor=#000000;" parent="1" vertex="1">
          <mxGeometry x="-1835" y="1780" width="30" height="30" as="geometry" />
        </mxCell>
        <mxCell id="7crgOBvIinUt4j5GadzT-63" value="1" style="text;html=1;strokeColor=none;fillColor=none;align=center;verticalAlign=middle;whiteSpace=wrap;rounded=0;fontColor=#000000;" parent="1" vertex="1">
          <mxGeometry x="-1690" y="1690" width="30" height="30" as="geometry" />
        </mxCell>
        <mxCell id="7crgOBvIinUt4j5GadzT-64" value="1" style="text;html=1;strokeColor=none;fillColor=none;align=center;verticalAlign=middle;whiteSpace=wrap;rounded=0;fontColor=#000000;" parent="1" vertex="1">
          <mxGeometry x="-1780" y="1692.5" width="30" height="30" as="geometry" />
        </mxCell>
        <mxCell id="7crgOBvIinUt4j5GadzT-65" value="1" style="text;html=1;strokeColor=none;fillColor=none;align=center;verticalAlign=middle;whiteSpace=wrap;rounded=0;fontColor=#000000;" parent="1" vertex="1">
          <mxGeometry x="-1850" y="1325" width="30" height="30" as="geometry" />
        </mxCell>
        <mxCell id="7crgOBvIinUt4j5GadzT-66" value="n" style="text;html=1;strokeColor=none;fillColor=none;align=center;verticalAlign=middle;whiteSpace=wrap;rounded=0;fontColor=#000000;" parent="1" vertex="1">
          <mxGeometry x="-1830" y="1570" width="30" height="30" as="geometry" />
        </mxCell>
        <mxCell id="7crgOBvIinUt4j5GadzT-67" value="n" style="text;html=1;strokeColor=none;fillColor=none;align=center;verticalAlign=middle;whiteSpace=wrap;rounded=0;fontColor=#000000;" parent="1" vertex="1">
          <mxGeometry x="-1770" y="1660" width="30" height="30" as="geometry" />
        </mxCell>
        <mxCell id="7crgOBvIinUt4j5GadzT-68" value="1" style="text;html=1;strokeColor=none;fillColor=none;align=center;verticalAlign=middle;whiteSpace=wrap;rounded=0;fontColor=#000000;" parent="1" vertex="1">
          <mxGeometry x="-2070" y="1840" width="30" height="30" as="geometry" />
        </mxCell>
        <mxCell id="7crgOBvIinUt4j5GadzT-69" value="n" style="text;html=1;strokeColor=none;fillColor=none;align=center;verticalAlign=middle;whiteSpace=wrap;rounded=0;fontColor=#000000;" parent="1" vertex="1">
          <mxGeometry x="-2110" y="1570" width="30" height="30" as="geometry" />
        </mxCell>
        <mxCell id="7crgOBvIinUt4j5GadzT-70" value="1" style="text;html=1;strokeColor=none;fillColor=none;align=center;verticalAlign=middle;whiteSpace=wrap;rounded=0;fontColor=#000000;" parent="1" vertex="1">
          <mxGeometry x="-2090" y="1360" width="30" height="30" as="geometry" />
        </mxCell>
        <mxCell id="7crgOBvIinUt4j5GadzT-71" value="n" style="text;html=1;strokeColor=none;fillColor=none;align=center;verticalAlign=middle;whiteSpace=wrap;rounded=0;fontColor=#000000;" parent="1" vertex="1">
          <mxGeometry x="-2110" y="1500" width="30" height="30" as="geometry" />
        </mxCell>
        <mxCell id="7crgOBvIinUt4j5GadzT-72" value="1" style="text;html=1;strokeColor=none;fillColor=none;align=center;verticalAlign=middle;whiteSpace=wrap;rounded=0;fontColor=#000000;" parent="1" vertex="1">
          <mxGeometry x="-2320" y="1680" width="30" height="30" as="geometry" />
        </mxCell>
        <mxCell id="7crgOBvIinUt4j5GadzT-73" value="1" style="text;html=1;strokeColor=none;fillColor=none;align=center;verticalAlign=middle;whiteSpace=wrap;rounded=0;fontColor=#000000;" parent="1" vertex="1">
          <mxGeometry x="-2105" y="1832.5" width="30" height="30" as="geometry" />
        </mxCell>
        <mxCell id="7crgOBvIinUt4j5GadzT-74" value="n" style="text;html=1;strokeColor=none;fillColor=none;align=center;verticalAlign=middle;whiteSpace=wrap;rounded=0;fontColor=#000000;" parent="1" vertex="1">
          <mxGeometry x="-2320" y="1620" width="30" height="30" as="geometry" />
        </mxCell>
        <mxCell id="7crgOBvIinUt4j5GadzT-75" value="n" style="text;html=1;strokeColor=none;fillColor=none;align=center;verticalAlign=middle;whiteSpace=wrap;rounded=0;fontColor=#000000;" parent="1" vertex="1">
          <mxGeometry x="-2130" y="1870" width="30" height="30" as="geometry" />
        </mxCell>
        <mxCell id="7crgOBvIinUt4j5GadzT-76" value="&lt;div style=&quot;box-sizing: border-box; width: 100%; background: rgb(228, 228, 228); padding: 2px; font-size: 12px;&quot;&gt;noficications&lt;/div&gt;&lt;table style=&quot;width: 100%; font-size: 12px;&quot; cellpadding=&quot;2&quot; cellspacing=&quot;0&quot;&gt;&lt;tbody style=&quot;font-size: 12px;&quot;&gt;&lt;tr style=&quot;font-size: 12px;&quot;&gt;&lt;td style=&quot;font-size: 12px;&quot;&gt;PK&lt;/td&gt;&lt;td style=&quot;font-size: 12px;&quot;&gt;id INT&lt;/td&gt;&lt;/tr&gt;&lt;tr style=&quot;font-size: 12px;&quot;&gt;&lt;td style=&quot;font-size: 12px;&quot;&gt;&lt;br style=&quot;font-size: 12px;&quot;&gt;&lt;/td&gt;&lt;td style=&quot;font-size: 12px;&quot;&gt;type VARCHAR(255)&lt;/td&gt;&lt;/tr&gt;&lt;tr style=&quot;font-size: 12px;&quot;&gt;&lt;td style=&quot;font-size: 12px;&quot;&gt;FK&lt;/td&gt;&lt;td style=&quot;font-size: 12px;&quot;&gt;sender_id INT&lt;/td&gt;&lt;/tr&gt;&lt;tr style=&quot;font-size: 12px;&quot;&gt;&lt;td style=&quot;font-size: 12px;&quot;&gt;FK&lt;/td&gt;&lt;td style=&quot;font-size: 12px;&quot;&gt;received_id INT&lt;/td&gt;&lt;/tr&gt;&lt;tr style=&quot;font-size: 12px;&quot;&gt;&lt;td style=&quot;font-size: 12px;&quot;&gt;&lt;br style=&quot;font-size: 12px;&quot;&gt;&lt;/td&gt;&lt;td style=&quot;font-size: 12px;&quot;&gt;content VARCHAR(255)&lt;/td&gt;&lt;/tr&gt;&lt;tr style=&quot;font-size: 12px;&quot;&gt;&lt;td style=&quot;font-size: 12px;&quot;&gt;&lt;br style=&quot;font-size: 12px;&quot;&gt;&lt;/td&gt;&lt;td style=&quot;font-size: 12px;&quot;&gt;&lt;br style=&quot;font-size: 12px;&quot;&gt;&lt;/td&gt;&lt;/tr&gt;&lt;tr style=&quot;font-size: 12px;&quot;&gt;&lt;td style=&quot;font-size: 12px;&quot;&gt;&lt;br style=&quot;font-size: 12px;&quot;&gt;&lt;/td&gt;&lt;td style=&quot;font-size: 12px;&quot;&gt;&lt;br style=&quot;font-size: 12px;&quot;&gt;&lt;/td&gt;&lt;/tr&gt;&lt;tr style=&quot;font-size: 12px;&quot;&gt;&lt;td style=&quot;font-size: 12px;&quot;&gt;&lt;br style=&quot;font-size: 12px;&quot;&gt;&lt;/td&gt;&lt;td style=&quot;font-size: 12px;&quot;&gt;&lt;br style=&quot;font-size: 12px;&quot;&gt;&lt;/td&gt;&lt;/tr&gt;&lt;tr style=&quot;font-size: 12px;&quot;&gt;&lt;td style=&quot;font-size: 12px;&quot;&gt;&lt;br style=&quot;font-size: 12px;&quot;&gt;&lt;/td&gt;&lt;td style=&quot;font-size: 12px;&quot;&gt;&lt;br style=&quot;font-size: 12px;&quot;&gt;&lt;/td&gt;&lt;/tr&gt;&lt;tr style=&quot;font-size: 12px;&quot;&gt;&lt;td style=&quot;font-size: 12px;&quot;&gt;&lt;br style=&quot;font-size: 12px;&quot;&gt;&lt;/td&gt;&lt;td style=&quot;font-size: 12px;&quot;&gt;&lt;br style=&quot;font-size: 12px;&quot;&gt;&lt;/td&gt;&lt;/tr&gt;&lt;tr style=&quot;font-size: 12px;&quot;&gt;&lt;td style=&quot;font-size: 12px;&quot;&gt;&lt;br style=&quot;font-size: 12px;&quot;&gt;&lt;/td&gt;&lt;td style=&quot;font-size: 12px;&quot;&gt;&lt;br style=&quot;font-size: 12px;&quot;&gt;&lt;/td&gt;&lt;/tr&gt;&lt;tr style=&quot;font-size: 12px;&quot;&gt;&lt;td style=&quot;font-size: 12px;&quot;&gt;&lt;br style=&quot;font-size: 12px;&quot;&gt;&lt;/td&gt;&lt;td style=&quot;font-size: 12px;&quot;&gt;&lt;br style=&quot;font-size: 12px;&quot;&gt;&lt;/td&gt;&lt;/tr&gt;&lt;tr style=&quot;font-size: 12px;&quot;&gt;&lt;td style=&quot;font-size: 12px;&quot;&gt;&lt;br style=&quot;font-size: 12px;&quot;&gt;&lt;/td&gt;&lt;td style=&quot;font-size: 12px;&quot;&gt;&lt;br style=&quot;font-size: 12px;&quot;&gt;&lt;/td&gt;&lt;/tr&gt;&lt;tr style=&quot;font-size: 12px;&quot;&gt;&lt;td style=&quot;font-size: 12px;&quot;&gt;&lt;br style=&quot;font-size: 12px;&quot;&gt;&lt;/td&gt;&lt;td style=&quot;font-size: 12px;&quot;&gt;&lt;br style=&quot;font-size: 12px;&quot;&gt;&lt;/td&gt;&lt;/tr&gt;&lt;tr style=&quot;font-size: 12px;&quot;&gt;&lt;td style=&quot;font-size: 12px;&quot;&gt;&lt;br style=&quot;font-size: 12px;&quot;&gt;&lt;/td&gt;&lt;td style=&quot;font-size: 12px;&quot;&gt;&lt;br style=&quot;font-size: 12px;&quot;&gt;&lt;/td&gt;&lt;/tr&gt;&lt;tr style=&quot;font-size: 12px;&quot;&gt;&lt;td style=&quot;font-size: 12px;&quot;&gt;&lt;br style=&quot;font-size: 12px;&quot;&gt;&lt;/td&gt;&lt;td style=&quot;font-size: 12px;&quot;&gt;&lt;br style=&quot;font-size: 12px;&quot;&gt;&lt;/td&gt;&lt;/tr&gt;&lt;tr style=&quot;font-size: 12px;&quot;&gt;&lt;td style=&quot;font-size: 12px;&quot;&gt;&lt;br style=&quot;font-size: 12px;&quot;&gt;&lt;/td&gt;&lt;td style=&quot;font-size: 12px;&quot;&gt;&lt;br style=&quot;font-size: 12px;&quot;&gt;&lt;/td&gt;&lt;/tr&gt;&lt;/tbody&gt;&lt;/table&gt;" style="verticalAlign=top;align=left;overflow=fill;html=1;rounded=0;shadow=0;comic=0;labelBackgroundColor=none;strokeWidth=1;fontFamily=Verdana;fontSize=12;" parent="1" vertex="1">
          <mxGeometry x="-2530" y="1415" width="210" height="125" as="geometry" />
        </mxCell>
        <mxCell id="7crgOBvIinUt4j5GadzT-77" value="&lt;div style=&quot;font-family: Consolas, &amp;quot;Courier New&amp;quot;, monospace; font-size: 14px; line-height: 19px;&quot;&gt;&lt;div style=&quot;&quot;&gt;&lt;span style=&quot;background-color: rgb(255, 255, 255);&quot;&gt;router.use(apiKey)&lt;/span&gt;&lt;/div&gt;&lt;div style=&quot;&quot;&gt;&lt;span style=&quot;background-color: rgb(255, 255, 255);&quot;&gt;router.use(permission(&#39;0000&#39;))&lt;/span&gt;&lt;/div&gt;&lt;span style=&quot;background-color: rgb(255, 255, 255);&quot;&gt;&lt;br&gt;&lt;/span&gt;&lt;div style=&quot;&quot;&gt;&lt;span style=&quot;background-color: rgb(255, 255, 255);&quot;&gt;router.use(&#39;/v1/api/checkout&#39;, require(&#39;./checkout&#39;))&lt;/span&gt;&lt;/div&gt;&lt;div style=&quot;&quot;&gt;&lt;span style=&quot;background-color: rgb(255, 255, 255);&quot;&gt;router.use(&#39;/v1/api/discount&#39;, require(&#39;./discount&#39;))&lt;/span&gt;&lt;/div&gt;&lt;div style=&quot;&quot;&gt;&lt;span style=&quot;background-color: rgb(255, 255, 255);&quot;&gt;router.use(&#39;/v1/api/inventory&#39;, require(&#39;./inventory&#39;))&lt;/span&gt;&lt;/div&gt;&lt;div style=&quot;&quot;&gt;&lt;span style=&quot;background-color: rgb(255, 255, 255);&quot;&gt;router.use(&#39;/v1/api/discount&#39;, require(&#39;./cart&#39;))&lt;/span&gt;&lt;/div&gt;&lt;div style=&quot;&quot;&gt;&lt;span style=&quot;background-color: rgb(255, 255, 255);&quot;&gt;router.use(&#39;/v1/api/product&#39;, require(&#39;./product&#39;))&lt;/span&gt;&lt;/div&gt;&lt;div style=&quot;&quot;&gt;&lt;span style=&quot;background-color: rgb(255, 255, 255);&quot;&gt;router.use(&#39;/v1/api&#39;, require(&#39;./access&#39;))&lt;/span&gt;&lt;/div&gt;&lt;/div&gt;" style="rounded=0;whiteSpace=wrap;html=1;align=left;" parent="1" vertex="1">
          <mxGeometry x="-960" y="1620" width="460" height="260" as="geometry" />
        </mxCell>
        <mxCell id="7crgOBvIinUt4j5GadzT-78" value="&lt;div style=&quot;font-family: Consolas, &amp;quot;Courier New&amp;quot;, monospace; font-size: 14px; line-height: 19px;&quot;&gt;&lt;div style=&quot;&quot;&gt;&lt;div style=&quot;line-height: 19px;&quot;&gt;&lt;div style=&quot;&quot;&gt;&lt;span style=&quot;background-color: rgb(255, 255, 255);&quot;&gt;router.post(&#39;/shop/signup&#39;, asyncHandler(accessController.signUp))&lt;/span&gt;&lt;br&gt;&lt;/div&gt;&lt;div style=&quot;&quot;&gt;&lt;span style=&quot;background-color: rgb(255, 255, 255);&quot;&gt;router.post(&#39;/shop/login&#39;, asyncHandler(accessController.login))&lt;/span&gt;&lt;br&gt;&lt;/div&gt;&lt;div style=&quot;&quot;&gt;&lt;br&gt;&lt;/div&gt;&lt;div style=&quot;&quot;&gt;&lt;span style=&quot;background-color: rgb(255, 255, 255);&quot;&gt;router.use(authenticationv2)&lt;/span&gt;&lt;/div&gt;&lt;div style=&quot;&quot;&gt;&lt;span style=&quot;background-color: rgb(255, 255, 255);&quot;&gt;router.post(&#39;/shop/logout&#39;, asyncHandler(accessController.logout))&lt;/span&gt;&lt;/div&gt;&lt;div style=&quot;&quot;&gt;&lt;span style=&quot;background-color: rgb(255, 255, 255);&quot;&gt;router.post(&#39;/shop/handlerRefreshToken&#39;, asyncHandler(accessController.handlerRefreshToken))&lt;/span&gt;&lt;/div&gt;&lt;/div&gt;&lt;/div&gt;&lt;/div&gt;" style="rounded=0;whiteSpace=wrap;html=1;align=left;" parent="1" vertex="1">
          <mxGeometry x="-1060" y="1930" width="720" height="145" as="geometry" />
        </mxCell>
        <mxCell id="7crgOBvIinUt4j5GadzT-79" value="&lt;div style=&quot;font-family: Consolas, &amp;quot;Courier New&amp;quot;, monospace; font-size: 14px; line-height: 19px;&quot;&gt;&lt;div style=&quot;&quot;&gt;&lt;div style=&quot;line-height: 19px;&quot;&gt;&lt;div style=&quot;&quot;&gt;&lt;span style=&quot;background-color: rgb(255, 255, 255);&quot;&gt;router.use(authenticationv2)&lt;/span&gt;&lt;/div&gt;&lt;div style=&quot;&quot;&gt;&lt;span style=&quot;font-style: italic; background-color: rgb(255, 255, 255);&quot;&gt;// authentication&lt;/span&gt;&lt;/div&gt;&lt;div style=&quot;&quot;&gt;&lt;span style=&quot;background-color: rgb(255, 255, 255);&quot;&gt;router.post(&#39;&#39;, asyncHandler(cartController.addToCart))&lt;/span&gt;&lt;/div&gt;&lt;div style=&quot;&quot;&gt;&lt;span style=&quot;background-color: rgb(255, 255, 255);&quot;&gt;router.delete(&#39;&#39;, asyncHandler(cartController.delete))&lt;/span&gt;&lt;/div&gt;&lt;div style=&quot;&quot;&gt;&lt;span style=&quot;background-color: rgb(255, 255, 255);&quot;&gt;router.post(&#39;/update&#39;, asyncHandler(cartController.update))&lt;/span&gt;&lt;/div&gt;&lt;div style=&quot;&quot;&gt;&lt;span style=&quot;background-color: rgb(255, 255, 255);&quot;&gt;router.get(&#39;&#39;, asyncHandler(cartController.listToCart))&lt;/span&gt;&lt;/div&gt;&lt;/div&gt;&lt;/div&gt;&lt;/div&gt;" style="rounded=0;whiteSpace=wrap;html=1;align=left;" parent="1" vertex="1">
          <mxGeometry x="-980" y="2140" width="480" height="150" as="geometry" />
        </mxCell>
        <mxCell id="7crgOBvIinUt4j5GadzT-80" value="&lt;div style=&quot;font-family: Consolas, &amp;quot;Courier New&amp;quot;, monospace; font-size: 14px; line-height: 19px;&quot;&gt;&lt;div style=&quot;&quot;&gt;&lt;div style=&quot;line-height: 19px;&quot;&gt;&lt;div style=&quot;line-height: 19px;&quot;&gt;&lt;div style=&quot;&quot;&gt;&lt;span style=&quot;background-color: rgb(255, 255, 255);&quot;&gt;router.get(&#39;/search/:keySearch&#39;, asyncHandler(productController.getListSearchProduct))&lt;/span&gt;&lt;/div&gt;&lt;div style=&quot;&quot;&gt;&lt;span style=&quot;background-color: rgb(255, 255, 255);&quot;&gt;router.get(&#39;&#39;, asyncHandler(productController.findAllProducts))&lt;/span&gt;&lt;/div&gt;&lt;div style=&quot;&quot;&gt;&lt;span style=&quot;background-color: rgb(255, 255, 255);&quot;&gt;router.get(&#39;/:product_id&#39;, asyncHandler(productController.findProduct))&lt;/span&gt;&lt;/div&gt;&lt;div style=&quot;&quot;&gt;&lt;span style=&quot;font-style: italic; background-color: rgb(255, 255, 255);&quot;&gt;// authentication&lt;/span&gt;&lt;/div&gt;&lt;div style=&quot;&quot;&gt;&lt;span style=&quot;background-color: rgb(255, 255, 255);&quot;&gt;router.use(authenticationv2)&lt;/span&gt;&lt;/div&gt;&lt;div style=&quot;&quot;&gt;&lt;span style=&quot;font-style: italic; background-color: rgb(255, 255, 255);&quot;&gt;/////////////////////&lt;/span&gt;&lt;/div&gt;&lt;div style=&quot;&quot;&gt;&lt;span style=&quot;background-color: rgb(255, 255, 255);&quot;&gt;router.post(&#39;&#39;, asyncHandler(productController.createProduct))&lt;/span&gt;&lt;/div&gt;&lt;div style=&quot;&quot;&gt;&lt;span style=&quot;background-color: rgb(255, 255, 255);&quot;&gt;router.patch(&#39;/:product_id&#39;, asyncHandler(productController.updateProduct))&lt;/span&gt;&lt;/div&gt;&lt;div style=&quot;&quot;&gt;&lt;span style=&quot;background-color: rgb(255, 255, 255);&quot;&gt;router.post(&#39;/publish/:product_id&#39;, asyncHandler(productController.publishProductByShop))&lt;/span&gt;&lt;/div&gt;&lt;div style=&quot;&quot;&gt;&lt;span style=&quot;background-color: rgb(255, 255, 255);&quot;&gt;router.post(&#39;/unPublish/:product_id&#39;, asyncHandler(productController.unPublishProductByShop))&lt;/span&gt;&lt;/div&gt;&lt;span style=&quot;background-color: rgb(255, 255, 255);&quot;&gt;&lt;br&gt;&lt;/span&gt;&lt;div style=&quot;&quot;&gt;&lt;span style=&quot;font-style: italic; background-color: rgb(255, 255, 255);&quot;&gt;// QUERY&lt;/span&gt;&lt;/div&gt;&lt;div style=&quot;&quot;&gt;&lt;span style=&quot;background-color: rgb(255, 255, 255);&quot;&gt;router.get(&#39;/drafts/all&#39;, asyncHandler(productController.getAllDraftsForShop))&lt;/span&gt;&lt;/div&gt;&lt;div style=&quot;&quot;&gt;&lt;span style=&quot;background-color: rgb(255, 255, 255);&quot;&gt;router.get(&#39;/published/all&#39;, asyncHandler(productController.getAllPublishForShop))&lt;/span&gt;&lt;/div&gt;&lt;/div&gt;&lt;/div&gt;&lt;/div&gt;&lt;/div&gt;" style="rounded=0;whiteSpace=wrap;html=1;align=left;" parent="1" vertex="1">
          <mxGeometry x="-1070" y="2310" width="740" height="315" as="geometry" />
        </mxCell>
        <mxCell id="7crgOBvIinUt4j5GadzT-81" style="edgeStyle=orthogonalEdgeStyle;rounded=0;orthogonalLoop=1;jettySize=auto;html=1;exitX=1;exitY=0.5;exitDx=0;exitDy=0;entryX=0;entryY=0.5;entryDx=0;entryDy=0;" parent="1" source="7crgOBvIinUt4j5GadzT-82" target="7crgOBvIinUt4j5GadzT-32" edge="1">
          <mxGeometry relative="1" as="geometry">
            <Array as="points">
              <mxPoint x="-2170" y="1870" />
              <mxPoint x="-2170" y="1961" />
            </Array>
          </mxGeometry>
        </mxCell>
        <mxCell id="7crgOBvIinUt4j5GadzT-82" value="&lt;div style=&quot;box-sizing: border-box; width: 100%; background: rgb(228, 228, 228); padding: 2px; font-size: 12px;&quot;&gt;user_infos&lt;/div&gt;&lt;table style=&quot;width: 100%; font-size: 12px;&quot; cellpadding=&quot;2&quot; cellspacing=&quot;0&quot;&gt;&lt;tbody style=&quot;font-size: 12px;&quot;&gt;&lt;tr style=&quot;font-size: 12px;&quot;&gt;&lt;td style=&quot;font-size: 12px;&quot;&gt;FK, PK&lt;/td&gt;&lt;td style=&quot;font-size: 12px;&quot;&gt;user_id INT&lt;/td&gt;&lt;/tr&gt;&lt;tr style=&quot;font-size: 12px;&quot;&gt;&lt;td style=&quot;font-size: 12px;&quot;&gt;&lt;br style=&quot;font-size: 12px;&quot;&gt;&lt;/td&gt;&lt;td style=&quot;font-size: 12px;&quot;&gt;address VARCHAR(255)&lt;/td&gt;&lt;/tr&gt;&lt;tr style=&quot;font-size: 12px;&quot;&gt;&lt;td style=&quot;font-size: 12px;&quot;&gt;&lt;/td&gt;&lt;td style=&quot;font-size: 12px;&quot;&gt;image VARCHAR(255)&lt;br&gt;&lt;/td&gt;&lt;/tr&gt;&lt;tr style=&quot;font-size: 12px;&quot;&gt;&lt;td style=&quot;font-size: 12px;&quot;&gt;&lt;br style=&quot;font-size: 12px;&quot;&gt;&lt;/td&gt;&lt;td style=&quot;font-size: 12px;&quot;&gt;delivery_address VARCHAR(255)&lt;/td&gt;&lt;/tr&gt;&lt;tr style=&quot;font-size: 12px;&quot;&gt;&lt;td style=&quot;font-size: 12px;&quot;&gt;&lt;br style=&quot;font-size: 12px;&quot;&gt;&lt;/td&gt;&lt;td style=&quot;font-size: 12px;&quot;&gt;phone VARCHAR(255)&lt;/td&gt;&lt;/tr&gt;&lt;tr style=&quot;font-size: 12px;&quot;&gt;&lt;td style=&quot;font-size: 12px;&quot;&gt;&lt;br style=&quot;font-size: 12px;&quot;&gt;&lt;/td&gt;&lt;td style=&quot;font-size: 12px;&quot;&gt;&lt;br&gt;&lt;/td&gt;&lt;/tr&gt;&lt;tr style=&quot;font-size: 12px;&quot;&gt;&lt;td style=&quot;font-size: 12px;&quot;&gt;&lt;br style=&quot;font-size: 12px;&quot;&gt;&lt;/td&gt;&lt;td style=&quot;font-size: 12px;&quot;&gt;&lt;br style=&quot;font-size: 12px;&quot;&gt;&lt;/td&gt;&lt;/tr&gt;&lt;tr style=&quot;font-size: 12px;&quot;&gt;&lt;td style=&quot;font-size: 12px;&quot;&gt;&lt;br style=&quot;font-size: 12px;&quot;&gt;&lt;/td&gt;&lt;td style=&quot;font-size: 12px;&quot;&gt;&lt;br style=&quot;font-size: 12px;&quot;&gt;&lt;/td&gt;&lt;/tr&gt;&lt;tr style=&quot;font-size: 12px;&quot;&gt;&lt;td style=&quot;font-size: 12px;&quot;&gt;&lt;br style=&quot;font-size: 12px;&quot;&gt;&lt;/td&gt;&lt;td style=&quot;font-size: 12px;&quot;&gt;&lt;br&gt;&lt;/td&gt;&lt;/tr&gt;&lt;tr style=&quot;font-size: 12px;&quot;&gt;&lt;td style=&quot;font-size: 12px;&quot;&gt;&lt;br style=&quot;font-size: 12px;&quot;&gt;&lt;/td&gt;&lt;td style=&quot;font-size: 12px;&quot;&gt;&lt;br style=&quot;font-size: 12px;&quot;&gt;&lt;/td&gt;&lt;/tr&gt;&lt;tr style=&quot;font-size: 12px;&quot;&gt;&lt;td style=&quot;font-size: 12px;&quot;&gt;&lt;br style=&quot;font-size: 12px;&quot;&gt;&lt;/td&gt;&lt;td style=&quot;font-size: 12px;&quot;&gt;&lt;br style=&quot;font-size: 12px;&quot;&gt;&lt;/td&gt;&lt;/tr&gt;&lt;tr style=&quot;font-size: 12px;&quot;&gt;&lt;td style=&quot;font-size: 12px;&quot;&gt;&lt;br style=&quot;font-size: 12px;&quot;&gt;&lt;/td&gt;&lt;td style=&quot;font-size: 12px;&quot;&gt;&lt;br style=&quot;font-size: 12px;&quot;&gt;&lt;/td&gt;&lt;/tr&gt;&lt;tr style=&quot;font-size: 12px;&quot;&gt;&lt;td style=&quot;font-size: 12px;&quot;&gt;&lt;br style=&quot;font-size: 12px;&quot;&gt;&lt;/td&gt;&lt;td style=&quot;font-size: 12px;&quot;&gt;&lt;br style=&quot;font-size: 12px;&quot;&gt;&lt;/td&gt;&lt;/tr&gt;&lt;tr style=&quot;font-size: 12px;&quot;&gt;&lt;td style=&quot;font-size: 12px;&quot;&gt;&lt;br style=&quot;font-size: 12px;&quot;&gt;&lt;/td&gt;&lt;td style=&quot;font-size: 12px;&quot;&gt;&lt;br style=&quot;font-size: 12px;&quot;&gt;&lt;/td&gt;&lt;/tr&gt;&lt;tr style=&quot;font-size: 12px;&quot;&gt;&lt;td style=&quot;font-size: 12px;&quot;&gt;&lt;br style=&quot;font-size: 12px;&quot;&gt;&lt;/td&gt;&lt;td style=&quot;font-size: 12px;&quot;&gt;&lt;br style=&quot;font-size: 12px;&quot;&gt;&lt;/td&gt;&lt;/tr&gt;&lt;tr style=&quot;font-size: 12px;&quot;&gt;&lt;td style=&quot;font-size: 12px;&quot;&gt;&lt;br style=&quot;font-size: 12px;&quot;&gt;&lt;/td&gt;&lt;td style=&quot;font-size: 12px;&quot;&gt;&lt;br style=&quot;font-size: 12px;&quot;&gt;&lt;/td&gt;&lt;/tr&gt;&lt;tr style=&quot;font-size: 12px;&quot;&gt;&lt;td style=&quot;font-size: 12px;&quot;&gt;&lt;br style=&quot;font-size: 12px;&quot;&gt;&lt;/td&gt;&lt;td style=&quot;font-size: 12px;&quot;&gt;&lt;br style=&quot;font-size: 12px;&quot;&gt;&lt;/td&gt;&lt;/tr&gt;&lt;/tbody&gt;&lt;/table&gt;" style="verticalAlign=top;align=left;overflow=fill;html=1;rounded=0;shadow=0;comic=0;labelBackgroundColor=none;strokeWidth=1;fontFamily=Verdana;fontSize=12;fillColor=#f9f7ed;strokeColor=#36393d;" parent="1" vertex="1">
          <mxGeometry x="-2560" y="1790" width="250" height="160" as="geometry" />
        </mxCell>
        <mxCell id="7crgOBvIinUt4j5GadzT-83" value="1" style="text;html=1;strokeColor=none;fillColor=none;align=center;verticalAlign=middle;whiteSpace=wrap;rounded=0;fontColor=#000000;" parent="1" vertex="1">
          <mxGeometry x="-2200" y="1850" width="30" height="30" as="geometry" />
        </mxCell>
        <mxCell id="7crgOBvIinUt4j5GadzT-84" value="1" style="text;html=1;strokeColor=none;fillColor=none;align=center;verticalAlign=middle;whiteSpace=wrap;rounded=0;fontColor=#000000;" parent="1" vertex="1">
          <mxGeometry x="-2130" y="1960" width="30" height="30" as="geometry" />
        </mxCell>
        <mxCell id="7crgOBvIinUt4j5GadzT-85" value="&lt;div style=&quot;color: rgb(187, 187, 187); background-color: rgb(0, 0, 0); font-family: Consolas, &amp;quot;Courier New&amp;quot;, monospace; line-height: 19px; font-size: 15px;&quot;&gt;&lt;font style=&quot;font-size: 15px;&quot;&gt;&lt;br&gt;&lt;/font&gt;&lt;/div&gt;&lt;div style=&quot;color: rgb(187, 187, 187); background-color: rgb(0, 0, 0); font-family: Consolas, &amp;quot;Courier New&amp;quot;, monospace; line-height: 19px; font-size: 15px;&quot;&gt;&lt;div style=&quot;line-height: 19px;&quot;&gt;&lt;font style=&quot;font-size: 15px;&quot;&gt;BadRequestError&lt;/font&gt;&lt;/div&gt;&lt;div style=&quot;line-height: 19px;&quot;&gt;&lt;div style=&quot;line-height: 19px;&quot;&gt;&lt;font style=&quot;font-size: 15px;&quot;&gt;AuthFailureError&lt;/font&gt;&lt;/div&gt;&lt;div style=&quot;line-height: 19px;&quot;&gt;&lt;div style=&quot;line-height: 19px;&quot;&gt;&lt;font style=&quot;font-size: 15px;&quot;&gt;ForbiddenError&lt;/font&gt;&lt;/div&gt;&lt;div style=&quot;line-height: 19px;&quot;&gt;&lt;div style=&quot;line-height: 19px;&quot;&gt;&lt;font style=&quot;font-size: 15px;&quot;&gt;NotFoundError&lt;/font&gt;&lt;/div&gt;&lt;div style=&quot;line-height: 19px;&quot;&gt;&lt;font style=&quot;font-size: 15px;&quot;&gt;CREATED&lt;/font&gt;&lt;/div&gt;&lt;div style=&quot;line-height: 19px;&quot;&gt;&lt;font style=&quot;font-size: 15px;&quot;&gt;OK&lt;/font&gt;&lt;/div&gt;&lt;/div&gt;&lt;/div&gt;&lt;/div&gt;&lt;/div&gt;" style="whiteSpace=wrap;html=1;align=left;" parent="1" vertex="1">
          <mxGeometry x="-1770" y="2640" width="150" height="150" as="geometry" />
        </mxCell>
        <mxCell id="7crgOBvIinUt4j5GadzT-86" value="1" style="text;html=1;strokeColor=none;fillColor=none;align=center;verticalAlign=middle;whiteSpace=wrap;rounded=0;fontColor=#000000;" parent="1" vertex="1">
          <mxGeometry x="-2130" y="1920" width="30" height="30" as="geometry" />
        </mxCell>
        <mxCell id="7crgOBvIinUt4j5GadzT-87" value="1" style="text;html=1;strokeColor=none;fillColor=none;align=center;verticalAlign=middle;whiteSpace=wrap;rounded=0;fontColor=#000000;" parent="1" vertex="1">
          <mxGeometry x="-2340" y="1995" width="30" height="30" as="geometry" />
        </mxCell>
        <mxCell id="7crgOBvIinUt4j5GadzT-88" value="&lt;div style=&quot;box-sizing: border-box; width: 100%; background: rgb(228, 228, 228); padding: 2px; font-size: 12px;&quot;&gt;key_token_useds&lt;/div&gt;&lt;table style=&quot;width: 100%; font-size: 12px;&quot; cellpadding=&quot;2&quot; cellspacing=&quot;0&quot;&gt;&lt;tbody style=&quot;font-size: 12px;&quot;&gt;&lt;tr style=&quot;font-size: 12px;&quot;&gt;&lt;td style=&quot;font-size: 12px;&quot;&gt;PK&lt;/td&gt;&lt;td style=&quot;font-size: 12px;&quot;&gt;id&lt;/td&gt;&lt;/tr&gt;&lt;tr style=&quot;font-size: 12px;&quot;&gt;&lt;td style=&quot;font-size: 12px;&quot;&gt;FK&lt;/td&gt;&lt;td style=&quot;font-size: 12px;&quot;&gt;user_id INT&lt;/td&gt;&lt;/tr&gt;&lt;tr style=&quot;font-size: 12px;&quot;&gt;&lt;td style=&quot;font-size: 12px;&quot;&gt;&lt;/td&gt;&lt;td style=&quot;font-size: 12px;&quot;&gt;refresh_token VARCHAR(255)&lt;/td&gt;&lt;/tr&gt;&lt;tr style=&quot;font-size: 12px;&quot;&gt;&lt;td style=&quot;font-size: 12px;&quot;&gt;&lt;br style=&quot;font-size: 12px;&quot;&gt;&lt;/td&gt;&lt;td style=&quot;font-size: 12px;&quot;&gt;&lt;br&gt;&lt;/td&gt;&lt;/tr&gt;&lt;tr style=&quot;font-size: 12px;&quot;&gt;&lt;td style=&quot;font-size: 12px;&quot;&gt;&lt;br style=&quot;font-size: 12px;&quot;&gt;&lt;/td&gt;&lt;td style=&quot;font-size: 12px;&quot;&gt;&lt;br&gt;&lt;/td&gt;&lt;/tr&gt;&lt;tr style=&quot;font-size: 12px;&quot;&gt;&lt;td style=&quot;font-size: 12px;&quot;&gt;&lt;br style=&quot;font-size: 12px;&quot;&gt;&lt;/td&gt;&lt;td style=&quot;font-size: 12px;&quot;&gt;&lt;br style=&quot;font-size: 12px;&quot;&gt;&lt;/td&gt;&lt;/tr&gt;&lt;tr style=&quot;font-size: 12px;&quot;&gt;&lt;td style=&quot;font-size: 12px;&quot;&gt;&lt;br style=&quot;font-size: 12px;&quot;&gt;&lt;/td&gt;&lt;td style=&quot;font-size: 12px;&quot;&gt;&lt;br style=&quot;font-size: 12px;&quot;&gt;&lt;/td&gt;&lt;/tr&gt;&lt;tr style=&quot;font-size: 12px;&quot;&gt;&lt;td style=&quot;font-size: 12px;&quot;&gt;&lt;br style=&quot;font-size: 12px;&quot;&gt;&lt;/td&gt;&lt;td style=&quot;font-size: 12px;&quot;&gt;&lt;br style=&quot;font-size: 12px;&quot;&gt;&lt;/td&gt;&lt;/tr&gt;&lt;tr style=&quot;font-size: 12px;&quot;&gt;&lt;td style=&quot;font-size: 12px;&quot;&gt;&lt;br style=&quot;font-size: 12px;&quot;&gt;&lt;/td&gt;&lt;td style=&quot;font-size: 12px;&quot;&gt;&lt;br style=&quot;font-size: 12px;&quot;&gt;&lt;/td&gt;&lt;/tr&gt;&lt;tr style=&quot;font-size: 12px;&quot;&gt;&lt;td style=&quot;font-size: 12px;&quot;&gt;&lt;br style=&quot;font-size: 12px;&quot;&gt;&lt;/td&gt;&lt;td style=&quot;font-size: 12px;&quot;&gt;&lt;br style=&quot;font-size: 12px;&quot;&gt;&lt;/td&gt;&lt;/tr&gt;&lt;tr style=&quot;font-size: 12px;&quot;&gt;&lt;td style=&quot;font-size: 12px;&quot;&gt;&lt;br style=&quot;font-size: 12px;&quot;&gt;&lt;/td&gt;&lt;td style=&quot;font-size: 12px;&quot;&gt;&lt;br style=&quot;font-size: 12px;&quot;&gt;&lt;/td&gt;&lt;/tr&gt;&lt;tr style=&quot;font-size: 12px;&quot;&gt;&lt;td style=&quot;font-size: 12px;&quot;&gt;&lt;br style=&quot;font-size: 12px;&quot;&gt;&lt;/td&gt;&lt;td style=&quot;font-size: 12px;&quot;&gt;&lt;br style=&quot;font-size: 12px;&quot;&gt;&lt;/td&gt;&lt;/tr&gt;&lt;tr style=&quot;font-size: 12px;&quot;&gt;&lt;td style=&quot;font-size: 12px;&quot;&gt;&lt;br style=&quot;font-size: 12px;&quot;&gt;&lt;/td&gt;&lt;td style=&quot;font-size: 12px;&quot;&gt;&lt;br style=&quot;font-size: 12px;&quot;&gt;&lt;/td&gt;&lt;/tr&gt;&lt;tr style=&quot;font-size: 12px;&quot;&gt;&lt;td style=&quot;font-size: 12px;&quot;&gt;&lt;br style=&quot;font-size: 12px;&quot;&gt;&lt;/td&gt;&lt;td style=&quot;font-size: 12px;&quot;&gt;&lt;br style=&quot;font-size: 12px;&quot;&gt;&lt;/td&gt;&lt;/tr&gt;&lt;tr style=&quot;font-size: 12px;&quot;&gt;&lt;td style=&quot;font-size: 12px;&quot;&gt;&lt;br style=&quot;font-size: 12px;&quot;&gt;&lt;/td&gt;&lt;td style=&quot;font-size: 12px;&quot;&gt;&lt;br style=&quot;font-size: 12px;&quot;&gt;&lt;/td&gt;&lt;/tr&gt;&lt;tr style=&quot;font-size: 12px;&quot;&gt;&lt;td style=&quot;font-size: 12px;&quot;&gt;&lt;br style=&quot;font-size: 12px;&quot;&gt;&lt;/td&gt;&lt;td style=&quot;font-size: 12px;&quot;&gt;&lt;br style=&quot;font-size: 12px;&quot;&gt;&lt;/td&gt;&lt;/tr&gt;&lt;tr style=&quot;font-size: 12px;&quot;&gt;&lt;td style=&quot;font-size: 12px;&quot;&gt;&lt;br style=&quot;font-size: 12px;&quot;&gt;&lt;/td&gt;&lt;td style=&quot;font-size: 12px;&quot;&gt;&lt;br style=&quot;font-size: 12px;&quot;&gt;&lt;/td&gt;&lt;/tr&gt;&lt;/tbody&gt;&lt;/table&gt;" style="verticalAlign=top;align=left;overflow=fill;html=1;rounded=0;shadow=0;comic=0;labelBackgroundColor=none;strokeWidth=1;fontFamily=Verdana;fontSize=12;fillColor=#cdeb8b;strokeColor=#36393d;" parent="1" vertex="1">
          <mxGeometry x="-2300" y="2250" width="210" height="80" as="geometry" />
        </mxCell>
        <mxCell id="7crgOBvIinUt4j5GadzT-89" value="&lt;div style=&quot;box-sizing: border-box; width: 100%; background: rgb(228, 228, 228); padding: 2px; font-size: 12px;&quot;&gt;key_tokens&lt;/div&gt;&lt;table style=&quot;width: 100%; font-size: 12px;&quot; cellpadding=&quot;2&quot; cellspacing=&quot;0&quot;&gt;&lt;tbody style=&quot;font-size: 12px;&quot;&gt;&lt;tr style=&quot;font-size: 12px;&quot;&gt;&lt;td style=&quot;font-size: 12px;&quot;&gt;FK,Pk&lt;/td&gt;&lt;td style=&quot;font-size: 12px;&quot;&gt;user_id INT&lt;/td&gt;&lt;/tr&gt;&lt;tr style=&quot;font-size: 12px;&quot;&gt;&lt;td style=&quot;font-size: 12px;&quot;&gt;&lt;br&gt;&lt;/td&gt;&lt;td style=&quot;font-size: 12px;&quot;&gt;refresh_token VARCHAR(255)&lt;/td&gt;&lt;/tr&gt;&lt;tr style=&quot;font-size: 12px;&quot;&gt;&lt;td style=&quot;font-size: 12px;&quot;&gt;&lt;/td&gt;&lt;td style=&quot;font-size: 12px;&quot;&gt;public_key VARCHAR(255)&lt;/td&gt;&lt;/tr&gt;&lt;tr style=&quot;font-size: 12px;&quot;&gt;&lt;td style=&quot;font-size: 12px;&quot;&gt;&lt;br style=&quot;font-size: 12px;&quot;&gt;&lt;/td&gt;&lt;td style=&quot;font-size: 12px;&quot;&gt;private_key VARCHAR(255)&lt;/td&gt;&lt;/tr&gt;&lt;tr style=&quot;font-size: 12px;&quot;&gt;&lt;td style=&quot;font-size: 12px;&quot;&gt;&lt;br style=&quot;font-size: 12px;&quot;&gt;&lt;/td&gt;&lt;td style=&quot;font-size: 12px;&quot;&gt;&lt;br&gt;&lt;/td&gt;&lt;/tr&gt;&lt;tr style=&quot;font-size: 12px;&quot;&gt;&lt;td style=&quot;font-size: 12px;&quot;&gt;&lt;br style=&quot;font-size: 12px;&quot;&gt;&lt;/td&gt;&lt;td style=&quot;font-size: 12px;&quot;&gt;&lt;br style=&quot;font-size: 12px;&quot;&gt;&lt;/td&gt;&lt;/tr&gt;&lt;tr style=&quot;font-size: 12px;&quot;&gt;&lt;td style=&quot;font-size: 12px;&quot;&gt;&lt;br style=&quot;font-size: 12px;&quot;&gt;&lt;/td&gt;&lt;td style=&quot;font-size: 12px;&quot;&gt;&lt;br style=&quot;font-size: 12px;&quot;&gt;&lt;/td&gt;&lt;/tr&gt;&lt;tr style=&quot;font-size: 12px;&quot;&gt;&lt;td style=&quot;font-size: 12px;&quot;&gt;&lt;br style=&quot;font-size: 12px;&quot;&gt;&lt;/td&gt;&lt;td style=&quot;font-size: 12px;&quot;&gt;&lt;br style=&quot;font-size: 12px;&quot;&gt;&lt;/td&gt;&lt;/tr&gt;&lt;tr style=&quot;font-size: 12px;&quot;&gt;&lt;td style=&quot;font-size: 12px;&quot;&gt;&lt;br style=&quot;font-size: 12px;&quot;&gt;&lt;/td&gt;&lt;td style=&quot;font-size: 12px;&quot;&gt;&lt;br style=&quot;font-size: 12px;&quot;&gt;&lt;/td&gt;&lt;/tr&gt;&lt;tr style=&quot;font-size: 12px;&quot;&gt;&lt;td style=&quot;font-size: 12px;&quot;&gt;&lt;br style=&quot;font-size: 12px;&quot;&gt;&lt;/td&gt;&lt;td style=&quot;font-size: 12px;&quot;&gt;&lt;br style=&quot;font-size: 12px;&quot;&gt;&lt;/td&gt;&lt;/tr&gt;&lt;tr style=&quot;font-size: 12px;&quot;&gt;&lt;td style=&quot;font-size: 12px;&quot;&gt;&lt;br style=&quot;font-size: 12px;&quot;&gt;&lt;/td&gt;&lt;td style=&quot;font-size: 12px;&quot;&gt;&lt;br style=&quot;font-size: 12px;&quot;&gt;&lt;/td&gt;&lt;/tr&gt;&lt;tr style=&quot;font-size: 12px;&quot;&gt;&lt;td style=&quot;font-size: 12px;&quot;&gt;&lt;br style=&quot;font-size: 12px;&quot;&gt;&lt;/td&gt;&lt;td style=&quot;font-size: 12px;&quot;&gt;&lt;br style=&quot;font-size: 12px;&quot;&gt;&lt;/td&gt;&lt;/tr&gt;&lt;tr style=&quot;font-size: 12px;&quot;&gt;&lt;td style=&quot;font-size: 12px;&quot;&gt;&lt;br style=&quot;font-size: 12px;&quot;&gt;&lt;/td&gt;&lt;td style=&quot;font-size: 12px;&quot;&gt;&lt;br style=&quot;font-size: 12px;&quot;&gt;&lt;/td&gt;&lt;/tr&gt;&lt;tr style=&quot;font-size: 12px;&quot;&gt;&lt;td style=&quot;font-size: 12px;&quot;&gt;&lt;br style=&quot;font-size: 12px;&quot;&gt;&lt;/td&gt;&lt;td style=&quot;font-size: 12px;&quot;&gt;&lt;br style=&quot;font-size: 12px;&quot;&gt;&lt;/td&gt;&lt;/tr&gt;&lt;tr style=&quot;font-size: 12px;&quot;&gt;&lt;td style=&quot;font-size: 12px;&quot;&gt;&lt;br style=&quot;font-size: 12px;&quot;&gt;&lt;/td&gt;&lt;td style=&quot;font-size: 12px;&quot;&gt;&lt;br style=&quot;font-size: 12px;&quot;&gt;&lt;/td&gt;&lt;/tr&gt;&lt;tr style=&quot;font-size: 12px;&quot;&gt;&lt;td style=&quot;font-size: 12px;&quot;&gt;&lt;br style=&quot;font-size: 12px;&quot;&gt;&lt;/td&gt;&lt;td style=&quot;font-size: 12px;&quot;&gt;&lt;br style=&quot;font-size: 12px;&quot;&gt;&lt;/td&gt;&lt;/tr&gt;&lt;tr style=&quot;font-size: 12px;&quot;&gt;&lt;td style=&quot;font-size: 12px;&quot;&gt;&lt;br style=&quot;font-size: 12px;&quot;&gt;&lt;/td&gt;&lt;td style=&quot;font-size: 12px;&quot;&gt;&lt;br style=&quot;font-size: 12px;&quot;&gt;&lt;/td&gt;&lt;/tr&gt;&lt;/tbody&gt;&lt;/table&gt;" style="verticalAlign=top;align=left;overflow=fill;html=1;rounded=0;shadow=0;comic=0;labelBackgroundColor=none;strokeWidth=1;fontFamily=Verdana;fontSize=12;fillColor=#cce5ff;strokeColor=#36393d;" parent="1" vertex="1">
          <mxGeometry x="-2580" y="1977.5" width="230" height="105" as="geometry" />
        </mxCell>
        <mxCell id="7crgOBvIinUt4j5GadzT-90" value="1" style="text;html=1;strokeColor=none;fillColor=none;align=center;verticalAlign=middle;whiteSpace=wrap;rounded=0;fontColor=#000000;" parent="1" vertex="1">
          <mxGeometry x="-2120" y="2055" width="30" height="30" as="geometry" />
        </mxCell>
        <mxCell id="7crgOBvIinUt4j5GadzT-91" value="1" style="text;html=1;strokeColor=none;fillColor=none;align=center;verticalAlign=middle;whiteSpace=wrap;rounded=0;fontColor=#000000;" parent="1" vertex="1">
          <mxGeometry x="-2430" y="2120" width="30" height="30" as="geometry" />
        </mxCell>
      </root>
    </mxGraphModel>
  </diagram>
</mxfile>
